<svg id="Layer_1" data-name="Layer 1" xmlns="http://www.w3.org/2000/svg" xmlns:xlink="http://www.w3.org/1999/xlink" viewBox="0 0 48 48"><defs><style>.cls-1{fill:#bbac9b;}.cls-2{fill:#f15a22;}.cls-3{fill:#e6e7e8;}</style><symbol id="Logo" data-name="Logo" viewBox="0 0 924.25 763.05"><path class="cls-1" d="M608.71,253.47c-14.11,3.79-28.81,11.4-39.19,21.58-14.11,13.85-24.38,31.6-36.15,47.48-5.84-19-8.26-40.1-18.44-56.37-10.51-16.8-26.48-32.73-43.81-42.06-21.26-11.43-44.94,4.22-43.75,28.34.7,14.23,8.6,33.46,19.67,40.84,35.8,23.87,66.26,49.77,70.21,101.48,20.46-42.56,49.88-65.09,87-79.49,10.25-4,22.27-9.92,27.47-18.58,5.39-9,7.16-23.73,3.48-33.25C632.76,257.26,616.55,251.37,608.71,253.47Z"/><path class="cls-2" d="M655,759.38l-7.52.19c-.18-.12-.34-.31-.54-.35-6.48-1.34-10.37-5.52-12.65-11.49a48.87,48.87,0,0,1-3-13.12c-.12-1.34-.35-2.68-.57-4.38l-6.07,5.51-.33-.32,3.63-4.9,3.57-4.85-.36-.4c-1.15.73-2.34,1.4-3.43,2.2a31.11,31.11,0,0,1-11.59,5.26c-6.76,1.5-11.27-.22-15.06-6-1.7-2.58-3.27-5.25-4.83-7.93a14.4,14.4,0,0,1-2-6.5c-.26-4.7,1.25-8.62,5.23-11.26s8.19-2.53,12.39-.38c.57.29,1.15.55,1.91.92,1.5-4.76,3.24-9.24,4.51-14.09-.73,0-1.15-.08-1.56-.06a32.35,32.35,0,0,1-3.52.24c-2.73-.14-4.17-1.45-4.66-4.14a9.82,9.82,0,0,1-.15-2.42,17.8,17.8,0,0,1,1.69-6.83c1.48-3,3-6.08,4.48-9.13.83-1.72,1.69-3.44,2.36-5.23a7,7,0,0,0-1.07-6.91l-1.2-1.7c1.13-2.44,1.12-2.44.45-5-.17-.64-.31-1.29-.43-1.94-.45-2.46.25-3.27,2.74-3.2a13.17,13.17,0,0,1,1.54.16c1.37.19,2.73.4,4.08.6a6.71,6.71,0,0,0,.59-6.26c-.48-1.39-1.16-2.7-1.72-4.07a13.44,13.44,0,0,1-.43-1.57l.41-.31c.31.27.78.47.91.81.61,1.58,1.11,3.2,1.67,4.8.45,1.28.93,2.54,1.4,3.81a9.09,9.09,0,0,0-.93-7.07c-.85-1.55-1.69-3.11-2.64-4.6-2.42-3.8-1.39-7.23,1-10.79.57.8,1,1.49,1.5,2.09a38.39,38.39,0,0,0,4.13,4.58c3.52,3,7.48,2.77,11.52,1.14-1.95-.62-3.94-1-5.91-1.53a6.4,6.4,0,0,1-4.43-3.39c-1.08-2.17-2-4.4-2.94-6.46.62-1.08,1.17-1,2-.58,1.37.67,2.82,1.15,4.35,1.75.8-2.21,1.17-4.13.07-6.15s-2.2-4.34-3.26-6.52-2.11-4.07-2.92-6.2c-2.76-7.23-2.87-14.71-1.61-22.23.8-4.84,3.49-8.2,8.29-9.7a3.15,3.15,0,0,0,.74-.53c-.45-.21-.78-.37-1.12-.5a15.94,15.94,0,0,1-9.86-10.11c-2.68-7.7-3.9-15.59-2.31-23.71.59-3,1.25-6,1.9-9.14a2.36,2.36,0,0,0-.67.25,7.58,7.58,0,0,0-3,6.12c-.08,1.92-.24,3.84-.4,6.24-2.23-3.34-2.59-6.31-.94-9.41.52-1,1.16-1.88,1.75-2.82,2.93-4.69,2.86-8.73-.43-13.13-2.69-3.61-5.53-7.1-8.31-10.64a4.53,4.53,0,0,0-.57-.5l-.3.19c1.35,2.56,2.69,5.11,4.07,7.76a2.69,2.69,0,0,1-.64,0,4,4,0,0,1-.57-.33,12.67,12.67,0,0,1-5.75-12.6c.46-4,1.53-7.95,2.37-11.91.55-2.58,1.17-5.13,1.78-7.75-1-.49-1.88-.9-2.73-1.33-2.63-1.34-5.24-2.71-7.87-4s-3.58-3.39-3.89-6c-.06-.52-.09-1-.15-1.55-.17-1.59-.18-1.59-2-1.82-2.94,8-9,12.78-14.72,11.43,1.38-.36,2.51-.62,3.61-1s2.43-.12,3.5-1.58c-1.79.05-3.22.11-4.65.11a12.08,12.08,0,0,1-9-3.55,18.61,18.61,0,0,1-4.94-9,8.27,8.27,0,0,1,1.67-6.91c.86,1.52,1.56,2.87,2.36,4.17a54,54,0,0,0,3.38,5.17c1.37,1.72,2.35,1.76,4.56.63l-2.47-1c1.68-2.57,4.19-3.83,6.75-5.12-.39-.49-.6-1-.84-1-2.07-.15-2.38-1.9-3.13-3.28a7.77,7.77,0,0,0-1.36-2.2,25.87,25.87,0,0,1-6.32-9.25c-.3-.72-.66-1.42-1-2l-7.26.8c-.94,1.73-1.82,3.52-2.84,5.22a8.61,8.61,0,0,1-5.82,4.06,1.65,1.65,0,0,1-2.17-.94c-.31-.68-.54-1.53-1.6-1.86.24,1.29.49,2.43.66,3.58.65,4.44-.78,6.88-5,8.29-4.62,1.53-9.27,3-13.9,4.44-.66.21-1.31.48-2,.72a10.34,10.34,0,0,0,5.84.31,37.08,37.08,0,0,0,12.12-4.63c.58-.33,1.18-.64,1.76-1a10.46,10.46,0,0,1-4.86,4.16,31.06,31.06,0,0,1-9.06,2.76c-6.1,1-12.07.69-17.68-2.23a34.62,34.62,0,0,1-13-12.36,11.37,11.37,0,0,1-1.39-3.46,20.19,20.19,0,0,1,1.83-14.38,12.86,12.86,0,0,1,10-7.16,23.77,23.77,0,0,1,6.36-.11,16.87,16.87,0,0,1,10.65,5.36,7.21,7.21,0,0,1,2.16,6.25,11.27,11.27,0,0,1-3.22,6.19c-1.7,1.7-3.67,1.95-6.2.8.5-.4.92-.77,1.37-1.1.84-.61,1.68-1.2,2.54-1.77a2.53,2.53,0,0,0,1-3.46,26.78,26.78,0,0,0-3-5.11c-2.64-3.26-5.32-3.59-9-1.51-1.36.77-2.33,1.64-2.21,3.45a13.33,13.33,0,0,1-.61,3.47c-.32,1.58-.71,3.16-1,4.75a7.44,7.44,0,0,0,1.56,6,12.38,12.38,0,0,0,10.27,5.21c5.79,0,9.82-3.26,12.75-7.91a12.84,12.84,0,0,0,1.2-11.89,68.2,68.2,0,0,0-3.2-7.27c-2.66-5.1-5.47-10.12-8.2-15.18-.29-.54-.51-1.12-.76-1.67l.37-.24c1.12,1.36,2.29,2.67,3.34,4.07a86.66,86.66,0,0,1,8.29,12.54c3.69,7.32,3.71,14.58-.23,21.81-.22.41-.39.84-.58,1.26a11.4,11.4,0,0,0,5.57-12.07C546,417.93,540,408,531,399.73a3.5,3.5,0,0,0-1.89-1,3.57,3.57,0,0,1-2.87-1.75c-.33-.48-.76-.89-1.21-1.43-1.73,1.9-2.83,4.2-4.87,6.32.19-1.79.36-3,.44-4.27.19-2.87-.84-4.07-3.85-4.56-.68-.52-1.32-1.08-2-1.54a19.51,19.51,0,0,1-8.66-11,56.39,56.39,0,0,1-1.11-5.93c-2,6.91,2.58,16,11.87,18.42l.48,1.69c-.66-.07-.95-.08-1.22-.14a17.15,17.15,0,0,1-12.8-16.16c-.1-3.31.14-6.63.26-9.95.07-2,.2-3.94.29-5.87a1.86,1.86,0,0,0-.37-.11c-.28.08-.56.15-.83.25a11.93,11.93,0,0,1-11-.92,55.29,55.29,0,0,1-5.42-4.16c-.29-.22-.51-.53-.79-.77s-.47-.33-1.12-.77c2.27,6.53,7.09,10.37,11.56,14.58l-.59-2.14a5.44,5.44,0,0,1,.83.34,14,14,0,0,1,4.39,16.85,38,38,0,0,1-3,5.16c-2.39,3.63-4.89,7.2-7.3,10.82a23.22,23.22,0,0,0-3.69,7.74c-1.13,5,1.1,9,5.91,10.62a24.71,24.71,0,0,0,2.58.58l1.88.43c-3.6,2.42-6.43.59-9.29-1.06-1.05,1.2-2.21,1-3.47.55a16.8,16.8,0,0,1-9.52-22.7,17.23,17.23,0,0,0,1.72-5.32,16,16,0,0,0-10.85,10.63c-.9-.22-1.14-.53-.78-1.17,1.93-3.41,3.86-6.8,7.2-9.11a42.44,42.44,0,0,0,4.36-3.4c3.9-3.54,3.92-6.41-.13-9.72-3.66-3-7.52-5.7-11.32-8.51-.26-.19-.7-.14-1-.21l-.26.39c.86,1,1.71,1.93,2.58,2.89,4.07,4.53,3.89,7.7-.76,11.62-2,1.71-4.15,3.31-6.21,5a13.84,13.84,0,0,0-1.89,1.86,2.12,2.12,0,0,0-.39,2.27,4.43,4.43,0,0,0,6.94,2c.52-.41.94-.95,1.47-1.34a6.32,6.32,0,0,1,1.27-.55,15.61,15.61,0,0,1-3.64,3.93c-2.07,1.52-5.78.9-7-1a9.22,9.22,0,0,1,.58-9.72,29.27,29.27,0,0,0,2.83-3.94c1.2-2.13,1-3.8-.91-5.34a45.54,45.54,0,0,0-5.33-3.53c-3.9-2.38-7.86-4.66-11.74-7.07-2.06-1.28-4-2.75-6-4.12a12.08,12.08,0,0,0-1.47-.71,38.71,38.71,0,0,1-2.68,14.92A38.11,38.11,0,0,1,422.8,391c-4,4.11-9.53,8.15-12,8.78,11.79-8.81,20.16-19.41,20.58-34.64a7.61,7.61,0,0,0-.7,2.21,35.7,35.7,0,0,1-3,9.45,58.77,58.77,0,0,1-9.53,14.06c-6.29,6.79-14,10.22-23.37,9-2.15-.27-3.89,1-3.85,3.17a41.38,41.38,0,0,0,.77,7.45c1.17,5.67-.29,10.26-5.2,13.46-3,2-6.18,3.67-9.21,5.45-.92-.8-1.21-1.35-.22-1.91,1.35-.76,2.69-1.54,4.05-2.27a17.5,17.5,0,0,0,8.08-9.06,11.89,11.89,0,0,0,.36-1.24l-.43-.21c-1.14,1.42-2.41,2.75-3.4,4.27a20.21,20.21,0,0,1-10.61,8.62,65.62,65.62,0,0,1-7.49,1.88c-4,.83-7.65,2.32-10,5.85a35.74,35.74,0,0,0-3,5.37c-2.47,5.54-4.8,11.15-9.87,14.72a13,13,0,0,1,1.05,3.18,77.6,77.6,0,0,1-.5,16.12,7.41,7.41,0,0,1-5.7,6.37,33.11,33.11,0,0,0-16.21,9.43,5.45,5.45,0,0,1-6,1.53c-.7-.21-1.4-.45-2.11-.66a9.55,9.55,0,0,0-5-.24,11.1,11.1,0,0,0,.85,5.46,11.06,11.06,0,0,1,1.21,5.56,6.62,6.62,0,0,1-3.24,5.45c.44-3.33.85-6.33,1.32-9.84L295,509.22a1.44,1.44,0,0,0-.43,1.78c.42,1.48,1.42,2.22,3.37,2.27,1.55,0,3.1-.06,4.65-.1-4.33,1.77-4.46,1.93-3.8,5.14a16.7,16.7,0,0,1,1.86-1.2,21.71,21.71,0,0,1,3.85-1.59c1.79-.44,3,.43,3.56,2.36-.71-.09-1.35-.18-2-.25-3.79-.44-5.58,1.6-4.68,5.31a4.65,4.65,0,0,0,.21.63c2,5.24,3.93,10.48,5.92,15.72a7.39,7.39,0,0,0,.7,1.17,11,11,0,0,0-.08-3.15A36.15,36.15,0,0,0,304.82,527c-.72-1.58-1.27-3.23-1.89-4.84l.45-.21c1.2,2,2.42,4,3.58,6a17.82,17.82,0,0,1,2.72,7.88c.21,4,.26,8,.24,11.92a51.21,51.21,0,0,1-4.91,22.5c-.64,1.31-1.14,2.68-1.74,4.12,2.09,1.18,4,2.23,5.92,3.35,3.73,2.21,4.52,4.44,3.12,8.54q-2.65,7.73-5.27,15.48c-.24.71-.41,1.45-.6,2.18l.34.12,3.78-6.15c-.84,6.48-2.66,12.39-8.39,16.49,1.92,1.27,3.67,2.47,5.47,3.59a20,20,0,0,1,7.84,9.33,32.27,32.27,0,0,1,2,19.91c-1.1,5.38-3.2,10.41-5.29,15.45a35.79,35.79,0,0,0-1.73,4.77,7.63,7.63,0,0,0,.4,6.07l3.83-9.39.42.13q-1,5.19-2.08,10.39l.41.18,2.19-3.13c-.54,2.48-1.07,4.46-1.4,6.48a6.87,6.87,0,0,0,2.92,7,7.45,7.45,0,0,0,1.77-4.83,42.7,42.7,0,0,0-.77-4.84,7.15,7.15,0,0,1,1.72,2.76,11.73,11.73,0,0,0,5.77,7,43.65,43.65,0,0,1,5.45,3.77c8,6.46,11.08,14.84,9.54,24.94-.93,6.08-4.4,10.13-10,11.35a39.69,39.69,0,0,1-6.38.46c-1,.05-2,0-3.18,0,0,4.2-.07,8.17.07,12.14a35,35,0,0,0,.81,7c1.22,5,7.61,7.21,11.79,4.21-1.87-.61-3.8-1.13-5.63-1.88a8.74,8.74,0,0,1-5.05-4.71c-1.74-4.29-.42-8.28,1.33-12.21a18.32,18.32,0,0,1,.14,3.46c0,1.85-.13,3.69,0,5.53a8.14,8.14,0,0,0,2.66,5.89c4.14,3.62,11.38,3.46,15.1-.6a37.94,37.94,0,0,0,3.85-5.88,26.28,26.28,0,0,0,1.13-2.39,14,14,0,0,1,.13,1.55c-.25,4.74-1.73,9-5.17,12.35a73.37,73.37,0,0,1-8.17,6.77,12.31,12.31,0,0,1-5.19,2.27c-11.33,1.65-20.83-1.8-28-10.83a18.33,18.33,0,0,1-4-13.45c0-.37,0-.76,0-1.56L295,735.31c-1.53,1.59-3,3.23-4.61,4.77a13.64,13.64,0,0,1-7.2,3.62,29.73,29.73,0,0,1-12.49-.64c-6.18-1.5-9.51-5.22-10.17-11.53-.22-2.1-.13-4.24-.2-6.8-.85.77-1.4,1.22-1.9,1.71-5.11,5-10.19,10-15.31,15.07-3.21,3.14-6.45,6.26-9.68,9.39a9,9,0,0,1,.8-1.54,148.23,148.23,0,0,1,15.28-17.45c1-.91,1.92-1.84,2.84-2.79a4.28,4.28,0,0,0,.52-1,1.29,1.29,0,0,0-1.14.24c-5.47,5.16-10.94,10.31-16.37,15.51a8.89,8.89,0,0,0-1.85,2.46c-.77,1.61-1.57,3.28-.86,5.17-.68.77-.16,1.33.3,1.93,1.27,1.63,2.54,3.26,3.78,4.91a10.33,10.33,0,0,1,.69,1.3c-5.49-.08-9.08-3-9.93-8-.59-3.52-.35-6.93,1.89-9.92,5.19-6.93,9.32-14.52,13.63-22,1.95-3.37,1.68-6.27-1-9.09a39.71,39.71,0,0,0-6.11-5.42,35.56,35.56,0,0,0-6.34-3,9.88,9.88,0,0,0-2.19-.43c6.35,8.26,10.89,16.71,7.51,27.27l-.49.1c-.47-5.53-.93-11.06-1.41-16.67l-1.34.17c.47,2.42,1,4.7,1.34,7,1,7.92-1.26,14.6-7.8,19.5a29.26,29.26,0,0,1-11.91,5c-3.79.78-6.16-.41-7.43-4.07a19.5,19.5,0,0,1-.13-13.45,16,16,0,0,1,2.74-4.74c2.32-2.74,5.36-2.08,6.83,1.44l-2.86-1.1a10.28,10.28,0,0,0-.74,8.31c.49,1.68,1.29,3.27,3.3,3.42s3.07-1.26,3.9-2.79a11.36,11.36,0,0,0,.88-8.6c-1.62-6.09-5.65-10.21-11.07-13.13a18.94,18.94,0,0,0-1.81-.75,5.46,5.46,0,0,0-.38.95,14,14,0,0,1-5.38,8.39A32.86,32.86,0,0,1,185,724.82c-9.8,1.31-18.51-1.55-26.5-7.05a10.66,10.66,0,0,1-4.74-8.6,24.57,24.57,0,0,1,.45-5.93c1.08-5.39,4.65-8.62,10.08-9.4,1.51-.22,3-.41,4.88-.66l-4.4-7.2c-2.09,3.44-4.16,6.58-7.46,8.61a12.69,12.69,0,0,1-10.7,1.26c1.16-.19,2.34-.15,3.51-.26a12.1,12.1,0,0,0,10.64-7.49,8.41,8.41,0,0,0,.28-1.48c-2.51,2.64-4.79,4.85-7.86,6S146.91,694,144,692a12.42,12.42,0,0,1,2.79-.07c1.47.07,2.95.16,4.42.16.28,0,.55-.35.83-.53-.22-.32-.4-.88-.66-.92a10.64,10.64,0,0,0-3-.1,6.63,6.63,0,0,1-4.91-.8c-2.34-1.64-4.47-3.57-6.69-5.38a.76.76,0,0,1-.12-.19c-1.93-3.5-3.88-7-3.83-11.16,0-1.36-.14-2.73-.23-4.34l-2.16,1.19a19.63,19.63,0,0,1-7.71,2.55c-4.79.44-9-1.18-12.93-3.69-4.4-2.77-6.37-6.63-5.59-11.79a2.65,2.65,0,0,0-.61-2.21c-5.87-7.82-6.17-16-1.39-24.41,2.1-3.72,4.15-7.48,7.27-10.5-1.57-2.46-3.15-4.68-4.45-7.07a6.4,6.4,0,0,0-4.26-3.17c-3.39-1-6.75-2.09-10.09-3.27A34.44,34.44,0,0,1,79.53,600a4.8,4.8,0,0,0-.93-.48,6.7,6.7,0,0,0-2.33-3.35,4.7,4.7,0,0,0,2.36,3.33c.48.71.93,1.45,1.46,2.13,1.11,1.39,2.28,2.75,3.42,4.12l-.28.35a13.62,13.62,0,0,1-2-.79c-4.7-2.74-7.68-6.78-8.1-12.21a67.72,67.72,0,0,1,1.61-19.34,7.46,7.46,0,0,1,5.15-5.84,33.46,33.46,0,0,1,3.87-.9c1.28-.3,2.59-.51,3.83-.92a22.14,22.14,0,0,1,8.22-1.56c4,.18,8.08.56,12.12.82.69,0,1.64.11,2-.28a8.86,8.86,0,0,0,2.6-5.54l-4.42.38c-4,.34-8.08.7-12.12,1a15.56,15.56,0,0,1-8.87-2.24c-4.24-2.37-8.59-4.56-12.89-6.84l-1.85-1,.11-.35,5.75.35a19.77,19.77,0,0,1,3.2-18.27,9.17,9.17,0,0,0,1.37-3.23c.45-1.94.7-3.92,1-5.88a3.06,3.06,0,0,0-4.79-3.23,12,12,0,0,0-5.21,5.28c-1.3,2.72-2.37,5.55-3.63,8.29a31.72,31.72,0,0,1-2.68,5.06,9.23,9.23,0,0,1-8.29,3.84,17.89,17.89,0,0,1-16.77-12.55C40.82,525,41,520,44.17,515.31c1.79-2.62,3.61-5.21,5.25-7.92s3.39-5,6.55-5.89a2.64,2.64,0,0,0,.61-.4c.08-1.66.21-3.34.24-5a5.83,5.83,0,0,1,3.66-5.57c1.45-.68,2.89-1.38,4.53-2.16a4.77,4.77,0,0,0-.9-.51,10.6,10.6,0,0,0-12.17,4.55,64.76,64.76,0,0,0-3.55,6.37c-1.32,2.47-2.5,5-3.9,7.44A6.41,6.41,0,0,1,38,509.51a9.22,9.22,0,0,1-7.32-4.83,6.6,6.6,0,0,1,2.05.61c1.42.61,2.83,1.24,4.26,1.83a4.1,4.1,0,0,0,4.66-1.06c2.71-2.6,4-6.06,6.09-9-1-.79-1.32-.23-1.57.32-1.27,2.77-3.49,4.74-5.66,6.74s-3.27,2.18-5.82.35a18.85,18.85,0,0,1-3.55-3.3,35.06,35.06,0,0,1-3.35-4.93q-2.49-4.31-4.7-8.77a7,7,0,0,0-3.94-3.91c-.12,0-.18-.22-.32-.4a6.19,6.19,0,0,1,.07-.81c.4-1.59,1.25-3.08,2.84-3.37s2.3,1.28,3,2.49c.12.19.24.37.35.57,1.11,2.16,2.11,4.39,3.37,6.47a17.24,17.24,0,0,0,3.19,3.88,5.05,5.05,0,0,0,4.61.9c1.57-.32,1.66-1.72,2.15-2.82,2-4.59,3.83-9.27,6.06-13.76,2.74-5.52,6.54-7.26,12.56-6.05,4.54.92,9.05,2,13.58,3.05a11.72,11.72,0,0,0,1.62.13C65.26,469,60.9,463.24,58.73,456.14l1.67-.88c-2.09-1.09-3.26-2.69-3.12-4.87a26.45,26.45,0,0,1,.91-5,3,3,0,0,1,3.13-2.31c1.1,0,2.22.1,3.32,0a22.78,22.78,0,0,0,2.86-.61c-4.56-4.56-8.76-8.77-13.07-13.1L66,418.21a12,12,0,0,0-1.58-.42,12.71,12.71,0,0,0-9.92,2.87c-1.58,1.32-3,2.83-4.45,4.3-.62.64-1.18,1.13-2.23.35,0-.67,0-1.47-.06-2.27-.12-3.62-.17-7.23-.41-10.84a13.53,13.53,0,0,0-1-3.57,1.56,1.56,0,0,0-2.13-1c-1.75.59-3.62,1-4.57,2.93l-2-1.37c-.11-1.3-.13-2.49-.33-3.64-.31-1.74-.82-3.44-1.1-5.19a24.12,24.12,0,0,1,.42-11.17,4.46,4.46,0,0,1,2.07-2.71,17,17,0,0,1,24,6.65c.26.49.58.94,1,1.67.52-.76,1.18-1.27,1.19-1.79,0-2.69-.09-5.39-.16-8.12-.66-.08-1-.16-1.38-.16a29,29,0,0,1-12.56-3.13c-3-1.43-5.85-3.11-8.79-4.65-4.76-2.51-9.46-5.15-14.33-7.44a39.84,39.84,0,0,0-8.76-3,14.5,14.5,0,0,0-16.5,9.86c-2,6.88,1.42,13,8.32,14.78.43.11.86.27,1.53.49a7.79,7.79,0,0,1-8.44-2.33c-3.1-4-4.57-8.32-3.24-13.42a12.69,12.69,0,0,1,5.23-7.66,30.93,30.93,0,0,1,11.12-4.7,16.37,16.37,0,0,1,10.78,1,83.83,83.83,0,0,0,9.48,3.7c3.27,1.08,6.64,1.9,10,2.8a4.88,4.88,0,0,0,1.32,0l.13-.55c-.67-.36-1.36-.69-2-1.09A76.43,76.43,0,0,1,39.64,365a16.91,16.91,0,0,1-5.93-9.12c-1.23-4.65.91-8.3,5.61-9.31a23.51,23.51,0,0,1,11.6.46,45.67,45.67,0,0,0,17.52,1.5c1.07-.11,2.12-.37,3.17-.57a14.32,14.32,0,0,0-2.88-.55A37.12,37.12,0,0,1,56.08,343c-8.48-4.52-17.37-8.08-26.24-11.72-3.64-1.49-6.95-.85-10.25.55a4.7,4.7,0,0,0-2.83,5.82,30.9,30.9,0,0,0,1.4,3.95c.51,1.35,1.05,2.67,1.58,4a8.52,8.52,0,0,1-4.36-5.14,18.12,18.12,0,0,1-.87-7.64,4.86,4.86,0,0,1,3.17-4.41,12.08,12.08,0,0,1,3.85-.85,104.05,104.05,0,0,1,16.55.8,69.8,69.8,0,0,0,9.48.4,4.63,4.63,0,0,0,4.56-3.84,30.19,30.19,0,0,0,.77-5.45c.19-3.09.22-6.19.31-9.29,0-.46,0-.93,0-1.71-1.25.78-2.21,1.45-3.23,2a58.79,58.79,0,0,1-7.43,3.85c-6,2.2-11.37.66-16-3.51a9.15,9.15,0,0,1-1.47-12.24,6.18,6.18,0,0,1,6.89-2.8,13.36,13.36,0,0,1,8.3,5.82,8.58,8.58,0,0,1,.69,1.47A26.05,26.05,0,0,1,38,300.94a31.64,31.64,0,0,0-5.44-3.29c-3-1.22-5.81.21-7,3.18a7,7,0,0,0-.26,4.56,9.12,9.12,0,0,0,3.58,5.16c8.4,6.19,21.94,2.77,25.55-7.6a44,44,0,0,1,4-8.38,22.09,22.09,0,0,1,16.83-10.91c.64-.09,1.27-.27,1.93-.4a2.51,2.51,0,0,0-1.7-2.43,13.87,13.87,0,0,0-15.09,3.24c-.43.44-.88.86-1.53,1.5-.11-.92-.22-1.48-.24-2.05-.21-5.2,3.07-8.74,8.27-8.85,1.32,0,2.65.09,4,.16,1.08.05,2.16.13,3.45.21a16.94,16.94,0,0,1-.72-2.63,7.16,7.16,0,0,0-2.83-4.77A124.44,124.44,0,0,1,56,252.92a9.69,9.69,0,0,0-1.94-1.79A6.35,6.35,0,0,0,48.84,250a9.46,9.46,0,0,0-7.2,9.14c0,.74,0,1.48,0,2.21.51,4.77,1,9.53,1.56,14.29.08.75.13,1.49.24,2.74a12.58,12.58,0,0,1-1-1.05c-2.41-3.79-5-7.49-7.17-11.41a38.12,38.12,0,0,1-4.52-16.06c-.42-6.19,2-11.05,6.82-14.79a21.06,21.06,0,0,1,6.83-3.57c5.64-1.69,11.34-2,16.42,1.41,3.79,2.52,7.14,5.69,10.68,8.57.37.3.71.65,1.28,1.17.92-4.32,3-7.8,5.11-11.24,1.24-2,2.53-3.89,2.72-6.37a43.88,43.88,0,0,1,1.07-4.28c.33-1.89-.25-2.75-2.11-3.26a14.25,14.25,0,0,0-3.48-.59,2.49,2.49,0,0,1-2.35-1.63,17.51,17.51,0,0,1-2.08-7.39A24.08,24.08,0,0,1,73.21,199c.21-.59.35-1.21.53-1.82l-.33-.1c-.52.63-1,1.26-1.84,2.25A10,10,0,0,1,75.45,191a20,20,0,0,1,9.45-4.06c1.92-.35,3.86-.55,5.68-.8-1.23-2.27-2.58-4.39-3.55-6.65a45.83,45.83,0,0,1-2-6.32c-1.38-5.15-2.7-10.3-7.17-14.36l2.28.33A16.25,16.25,0,0,0,75,154.8,7.91,7.91,0,0,0,70.1,154a6.2,6.2,0,0,0-4.74,9.22c.58,1,1.27,2,1.88,3,.28.47.48,1,.81,1.67a22.27,22.27,0,0,1-2.34.5,9.74,9.74,0,0,1-10.08-7.59A14.92,14.92,0,0,1,62.84,144a17.39,17.39,0,0,1,11.8-1.72c6.68,1.2,11.93,4.87,16.4,9.82.52.59,1,1.17,1.58,1.76l.3-.18c-1.33-5.77-2.66-11.54-4-17.35,2-.05,3.07,1.22,4.27,2.28,1.54-3.65,3-7.19,4.52-10.68.65-1.48,1.51-2.86,2.25-4.31a5.9,5.9,0,0,1,4.28-3.11c2-.46,4-1.14,6-1.7a9.53,9.53,0,0,1,1.19-.2l.16.36-4.81,2.58.21.46,6.86-1.89.24.5-6.23,3.86a2.6,2.6,0,0,0,1.57,0c3.41-1,6.77-2.09,10.22-2.83,6.22-1.33,12.2-.65,17.64,2.91s7.63,8.83,7.13,15.2a7.64,7.64,0,0,1-4.77,6.69c-3.53,1.55-7.21,1.41-10.92.62a8.17,8.17,0,0,1,1.81-.73,43.81,43.81,0,0,0,5.61-2,4.8,4.8,0,0,0,2.33-6.73,9.38,9.38,0,0,0-2-2.86,20.57,20.57,0,0,0-9.79-5.34,6.86,6.86,0,0,0-3.68.13,17.75,17.75,0,0,0-10.91,10c-2.17,5.12-.9,12.92,7.8,14.3,4.08.64,8.08-.19,12.09-.75.18,0,.31-.37.64-.77-2.4-.55-4.66.26-6.9-.37.55-1.16,1.38-.87,2-.89,2.88-.11,5.76-.12,8.63-.26a26.31,26.31,0,0,0,4.6-.58c4.81-1.1,8.38-4.08,11.59-7.69,2.14-2.39,3.21-4.87,2.1-8a14.4,14.4,0,0,1-.44-2.39c-1.52-8.26-3.33-16.48-3.62-24.93a24.47,24.47,0,0,0-8.14-17.59,11.24,11.24,0,0,0-4.56-2.6,3.49,3.49,0,0,0-4.11,1.33,8.18,8.18,0,0,0-2.07,5c0,2.72.17,5.44.41,8.15a30,30,0,0,0,.91,4.77c.58,2.23,1.61,3.11,3.88,3.23a4.82,4.82,0,0,1,3.25,1.65,32.47,32.47,0,0,1,10,27.28,5.88,5.88,0,0,1-1.68,3.75c.05-1,0-1.56.11-2.13a24.17,24.17,0,0,0-.64-9c-1.31-5.75-4.1-10.87-7-15.94a4.18,4.18,0,0,0-1.73-1.63c-1.49-.74-3.08-1.29-4.45-1.84a2.25,2.25,0,0,0-1.05,2.52c.15,1.17.29,2.34.35,3.52,0,.33-.26.68-.52,1.29a18.58,18.58,0,0,1-3.11-8c-.49-3.58-1-7.16-1.45-10.75-.61-5.42-1.28-10.84-1.65-16.28s2.37-9.24,7-11.8c3.16-1.72,6.14-1.48,8.8.89a62.17,62.17,0,0,1,4.91,5.09c1.12,1.26,2.07,2.68,3.14,4a3.34,3.34,0,0,0,1,.59l.34-.4c-.39-.58-.76-1.18-1.18-1.73-2.46-3.23-4.94-6.44-7.39-9.68a8.89,8.89,0,0,1-.75-1.45c.43-.06.61-.14.7-.08a3,3,0,0,1,.67.55,65.83,65.83,0,0,1,10.84,15c1.91,3.82,4,7.57,6.06,11.31a14.56,14.56,0,0,0,2.21,3c1.38,1.43,2.64,1.39,4-.12A14.84,14.84,0,0,0,169.83,96c2.42-4.8,4.77-9.65,7.15-14.48,2.08-4.23,4.09-8.51,6.32-12.66a21.1,21.1,0,0,1,3.59-4.73c1.62-1.63,3.38-1.68,5.19-.26a19.83,19.83,0,0,1,3.38,3.47c3.52,4.55,6.83,9.27,10.46,13.73,2.51,3.07,5.37,5.87,8.18,8.68a13.5,13.5,0,0,0,3.46,2.36,5.86,5.86,0,0,0,7-.85,40.17,40.17,0,0,0,3.47-4c.66-.79,1.12-1.92,1.95-2.36,1.51-.82,2.07-2.14,2.77-3.52a44.89,44.89,0,0,1,2.72-4.29c.31-.47.68-.91,1.19-1.6l-4.43-.85,7.19-12.25c1.54.43,2.88.81,4.22,1.17a19.55,19.55,0,0,0,9.4.47c5.7-1.21,8.85-4.68,9.34-10.5.13-1.59.16-3.2.24-4.94,1.38-.22,2.67-.53,4-.62,1.6-.11,2.09.37,2.3,2a12.34,12.34,0,0,1,.12,2.43c-.45,5.93,4.78,10.85,10.11,11.53a8.13,8.13,0,0,0,3.46-.38,2.32,2.32,0,0,0,1.05-3.77,7.83,7.83,0,0,0-2.24-1.69c-.63-.36-1.41-.44-2.07-.75a4.49,4.49,0,0,1-2.79-5.21,21.14,21.14,0,0,1,.93-3c6,0,9.29,2.16,11.29,7.38a8.31,8.31,0,0,0,4.3,4.55,17.48,17.48,0,0,0,12.68,1.43,32.48,32.48,0,0,1,10.75-.82c4,.24,8.1.41,12.15.67a19.39,19.39,0,0,0,9.44-1.85c2.46-1.13,5.05-1.94,7.73-3l.88,3.62a11.74,11.74,0,0,0,1.37.29c4.16.46,5-.21,5.23-4.38.13-2,.23-3.91.37-6.29.94.78,1.63,1.29,2.24,1.88,1.32,1.29,2.54,2.68,3.91,3.91a23.36,23.36,0,0,0,4,3.1,8.71,8.71,0,0,0,8.53.22c-.62-.67-1.11-1.21-1.62-1.73q-5-5-10-10.05c-.82-.82-1.28-1.61-.55-2.61l37-2.79c-.15-.92-.26-1.54-.41-2.44,1,.5,1.7.91,2.47,1.3s1.44.69,2.17,1l.19-.49c-9.07-12.2-21.68-16-36.52-14.94a22,22,0,0,1,8.9-1.13,68,68,0,0,1,12.58,2.39c1.32.37,2.65.66,4,1a20.69,20.69,0,0,0-9.73-6c-6-1.8-12-1.23-17.92.23-1.36.33-2.72.69-4.08,1a17.72,17.72,0,0,1,9.36-3.62,48.18,48.18,0,0,1,13.86,1A19.86,19.86,0,0,1,393.24,28c2.41,2.57,4.49,5.45,6.71,8.2.41.51.78,1.05,1.17,1.57a8.71,8.71,0,0,0-.46-3,48.46,48.46,0,0,1-1.9-14c.07-7.54,3.41-12.95,10.25-16.18A56.79,56.79,0,0,1,420.27.71a24.34,24.34,0,0,1,12.05.1c11.37,3,18.76,10.34,22.8,21.24.3.81.59,1.61.91,2.5.91-.42,1.63-.77,2.37-1.1,4.36-2,8.86-3.25,13.71-2.77,5.85.57,10.21,3.66,13.68,8.2a10.74,10.74,0,0,1-2-1.12c-1.87-1.17-3.68-2.48-5.65-3.46-3.3-1.64-6.78-2.34-10.46-1.12.13.17.19.34.3.39.76.28,1.54.5,2.29.8,4.51,1.77,9.23,3.07,13,6.35A6.79,6.79,0,0,0,489.57,32a36.14,36.14,0,0,1,4.13-.76A33.73,33.73,0,0,1,507.64,33c3.8,1.17,7.65,2.19,11.5,3.18a14.62,14.62,0,0,0,6.58.36,2,2,0,0,0,1.88-2,20.27,20.27,0,0,1,4-10.19,6.38,6.38,0,0,0,1-2.59c.61-3.49,1-7,1.69-10.48a17,17,0,0,1,1.63-4.77A6.73,6.73,0,0,1,542.2,2.6c5.92.13,11.23,1.86,15,6.68,2.09,2.66,3.94,5.51,6,8.36l-1.75,1.15a2.8,2.8,0,0,0,.48.55,22,22,0,0,1,8.55,11.23c1.5,4.14,4.18,7.57,7,11l.71-.95c2.07,2.68,4.26,5.16,5.63,8.24a6.07,6.07,0,0,0,2,2.32,24.65,24.65,0,0,0,8.61,3.92,37.28,37.28,0,0,0,4.11.59c.08-.67.14-1,.17-1.39.32-3.44,0-3.87-3.48-4.42a4.92,4.92,0,0,1-3.94-3.7,22.38,22.38,0,0,1-.26-7.7,2.27,2.27,0,0,1,1.47-2c1.29-.56,2.56-1.13,3.83-1.73,3.2-1.5,3.33-1.83,1.47-4.92a3.16,3.16,0,0,1-.22-3.64,7,7,0,0,0,.9-5.12c-.86-3.8-3.58-5.63-8.39-5.52a2.8,2.8,0,0,0-2.77,1.82c-.58,1.36-1.11,2.73-1.77,4-.27.53-.76,1.24-1.24,1.32-1,.14-1.44-.7-1.57-1.53a30.8,30.8,0,0,1-.58-5.47,4,4,0,0,1,4.49-4.12A58,58,0,0,1,604,14.42a16.64,16.64,0,0,1,4.48,2.34c3.14,2.35,3.92,5.87,2.35,9.48a17.4,17.4,0,0,1-3.7,4.91,27.36,27.36,0,0,0-4.26,5.31,11.87,11.87,0,0,0,2.6,14.9,16,16,0,0,0,13.26,3.53,12.88,12.88,0,0,0,6.3-3c1.07-.9,2-2.06,3.54-2.6-.19,3.34-1,6.45-.83,9.68a4.67,4.67,0,0,0,1.3-1.23c.85-1.1,1.64-2.27,2.56-3.32,2.6-2.93,4.82-3.47,8.25-1.7,5.32,2.75,10.24,1.94,15-1.23.6-.39,1.19-.8,1.78-1.19,4.08,4.83,7,6.53,13,7.45,1,.16,2,.26,3.06.47,3.84.8,7.39,2.21,9.7,5.6a7.46,7.46,0,0,0,3.72,2.71c.41-1-.39-2.68,1.42-2.82,4.42,3.6,6.7,8.81,10.14,13.64,2.18-7.57-1.18-12.52-6.23-16.92a11.37,11.37,0,0,1,7.11,4c1.72,2.15,3.07,4.58,4.63,7,.32-.43.74-.93,1.11-1.46,3-4.23,5.68-8.63,9.31-12.36a11.9,11.9,0,0,0,1.94-2.94c1.29-2.56.91-4.4-1.16-6.37-3.86-3.68-11.5-4.21-15.83-1.09-2.7,1.94-3.45,6.37-1.28,8.84a33.68,33.68,0,0,0,4.5,3.9,2.42,2.42,0,0,0,1.47.34,9.11,9.11,0,0,0,7.52-4,5.22,5.22,0,0,0,.93-3.33c0-1.2-.44-1.91-1.75-2.08-2.26-.3-4.51-.74-6.76-1.1-.61-.1-1.23-.14-2.09-.23.46,1.51.81,2.7,1.19,3.89.76,2.44.76,2.44.25,3.79-1-3-2-5.67-3-8.7,3.3.09,6.24,0,9.17.26a5,5,0,0,1,4.19,7.38A11.17,11.17,0,0,1,702,61.94c-4.08-.63-7.48-4.11-8.44-8.63a7.07,7.07,0,0,1,5.22-8.69c2.55-.71,5.13-1.37,7.73-1.89,3.9-.76,7.86-1.7,11.84-.78,2.85.66,5.61,1.74,8.41,2.64l2.75.91c-.78-1.78-1.39-3.15-2-4.52,2.08,1.13,3.84,2.4,4,4.93a16.5,16.5,0,0,0,.53,2.37c.64,3.11,1.27,6.23.82,9.43-.16,1.19-.47,2.35-.73,3.61a1.92,1.92,0,0,0,.36-.15,4.06,4.06,0,0,0,.42-.51,12.87,12.87,0,0,0,.9-13.82l-1-2a5.73,5.73,0,0,1,4.22,5,22.35,22.35,0,0,1-.06,5.72c-.69,4.78-3.17,8.67-6.54,12-.54.54-1.06,1.11-1.89,2,1.44-.11,2.38-.22,3.32-.25a30.81,30.81,0,0,1,4.19,0c4.2.5,6.59,3.25,6.62,7.46a16.43,16.43,0,0,1-2.3,8c-2.18,4-4.6,7.91-6.78,11.92a46.82,46.82,0,0,0-2.76,6.23c-.87,2.37,0,4.35,1.92,5.88,1,.78,2.06,1.42,3.1,2.12s2.38,1.49,3.49,2.34a12.38,12.38,0,0,1,4.74,7.26c.09.39.18.78.33,1.45.79-.73,1.39-1.25,2-1.8q6.4-6.27,12.82-12.53c.74-.72,1.51-1.42,2.31-2.07,2.64-2.12,4.1-2.16,6.66,0a30.93,30.93,0,0,1,3.83,3.67,14,14,0,0,1,2.28,3.74,7.11,7.11,0,0,1,.34,4.84c-.68-1.77-1.18-3.31-1.84-4.77a12.43,12.43,0,0,0-5.8-6.17c-2.1-1.06-2.52-1-4.41,1.12a25.85,25.85,0,0,1,3.48.67A9.69,9.69,0,0,1,769,110.2a3,3,0,0,1,1.47,3l-5.16-2.68-.41.31a25.41,25.41,0,0,0,1.58,4.72,67.37,67.37,0,0,0,5,7.56c2.36,3.12,5,6.05,7.42,9.08a16.39,16.39,0,0,1,3.56,8A25.71,25.71,0,0,0,788,152.69a24.62,24.62,0,0,1,3.71,7c1.74,4.38,3.7,8.67,5.67,13a12,12,0,0,0,5.24,5.53c.74.42,1.42.94,2.46,1.63l-3.45.09c2.21,2.16,4.8,2.42,6.9.51a40.9,40.9,0,0,0,4-4.41c3.7-4.5,7.35-9.05,11-13.56a9.32,9.32,0,0,1,1.12-1l.89.94-1.38,1.53c4.22,1.65,4.82,2.6,4.59,7.19-.06,1.28-.15,2.55-.26,4.38,3.58-4.12,7.36-5.68,12-3,2.88,1.66,3.83,3.55,3.46,7.13l-3.43-5a18.59,18.59,0,0,0-2.2.94c-.34.2-.78.65-.77,1,.11,3.05.39,6.07,2.88,8.3l11.68,10.5a2.49,2.49,0,0,0,.59.29c.18-.29.34-.53.47-.79a50.78,50.78,0,0,1,2.87-5.71,14.49,14.49,0,0,1,12.1-7.05,15.9,15.9,0,0,1,10.67,3.65c14.54,11.54,20.6,26.5,17.72,44.9A27.52,27.52,0,0,1,889,246.06a16.38,16.38,0,0,1-3.64,2.84c-4.22,2.33-8.64.92-10.86-3.35a7,7,0,0,1-.93-2.47c-.3-3.29-.52-6.6-.66-9.9-.05-1.24.87-1.91,2.18-2.47-.12.92-.23,1.64-.29,2.36a55.49,55.49,0,0,0-.45,7.26c.21,3.54,2.32,6,5.51,7.41a4.22,4.22,0,0,0,3,.24c2.86-1.19,5.3-3,6-6.27a40.14,40.14,0,0,0,.5-14.08,54.89,54.89,0,0,0-7.9-21c-.44-.73-.85-1.47-1.27-2.21l.39-.3c1.11,1.21,2.31,2.36,3.34,3.64A35.06,35.06,0,0,1,890.29,222c.61,2.58,1.11,5.19,1.67,7.79l.44-.07c-.24-2.41-.35-4.85-.76-7.23-1.51-8.81-5.63-16.42-11.2-23.26-2.84-3.48-7.5-2.95-9.89.86a8.77,8.77,0,0,0-1.09,2.63c-.48,2.08-.81,4.2-1.21,6.3-.9,4.77-1.7,9.57-2.74,14.32a16.15,16.15,0,0,1-4.3,8.11,4.29,4.29,0,0,0-1.63,3.5l.66.79a6.52,6.52,0,0,1,.67,8.18c-.79,1.33-1.81,2.52-2.69,3.79a10,10,0,0,0-.68,1.32c5.09.24,10,.33,14.81.73,12,1,21,6.73,26.37,17.73a55.13,55.13,0,0,1,5.19,18.88c.44,4.47.71,9,1.41,13.42,1.09,6.88,3.62,13.36,6.37,19.73a10.77,10.77,0,0,0,2,3.11,5.07,5.07,0,0,0,8.5-1.76c.35-.88.43-1.86.7-2.77.36-1.24.78-2.46,1.17-3.69l.14,5.31a5.13,5.13,0,0,0-.41,1,6.89,6.89,0,0,1-5.29,5.32c-2.75.46-4.71-.74-6.14-3-.32-.5-.66-1-1-1.49a70,70,0,0,1-8-20c-.93-4-1.61-8.1-2.37-12.15a3.61,3.61,0,0,0-2.6-3,4.43,4.43,0,0,0,0,.79c1.4,6.33,2.74,12.67,4.23,19,1.64,6.93,4,13.58,8.12,19.48a7.47,7.47,0,0,1,.45,1,26.47,26.47,0,0,0-3.41-.21,2.68,2.68,0,0,1-2.87-1.84c-2-4.18-4.19-8.29-6.31-12.42a11.26,11.26,0,0,0-.92-1.29c-.21,2.11.82,3.75,1.45,5.51s1.31,3.51,2,5.27l-.37.14c-1.76-3.36-3.51-6.73-5.41-10.36-.79,1.06-1.38,1.88-2,2.69-2.57,3.36-5,4.06-9.48,2.61a14.48,14.48,0,0,0,1.91-.41,26.28,26.28,0,0,0,5.09-2c2.67-1.67,3.33-4.39,3-7.43a11,11,0,0,0-1.65,2.54c-1.86,3.93-5.07,5.56-9.29,5.5-.89,0-1.77-.07-2.66-.08-.46,0-.93,0-1.39,0l-.07.35,2.06,1.11a17.48,17.48,0,0,0,.36,2.4c3.46,11,7,21.91,10.38,32.89a23.77,23.77,0,0,0,3.67,7.26c.59.79,1.11,1.64,1.71,2.53l-3.2.92a12.07,12.07,0,0,1,1.36.87c2.65,2.44,5.32,4.87,7.92,7.37a8.51,8.51,0,0,0,11.3.74,16.21,16.21,0,0,0,4.8-6,25.32,25.32,0,0,0,2.24-11.18c0-.84,0-1.69,0-2.54a9.7,9.7,0,0,1,.84,3.7,24.41,24.41,0,0,1-.18,4.19c-1,7.06-4.29,12.45-11.06,15.38a3.85,3.85,0,0,1-3.15.24,6,6,0,0,0-7,1.83,21.54,21.54,0,0,0-1.79,2.25c-1.31,1.87-2.41,3.9-4.46,5.13a1.41,1.41,0,0,0-.42.51c-1.66,2.94-3.3,5.88-5,8.86.89.77,1.8.53,2.74-.37.4-.38.76-1.17,1.71-.7l-1.23,2.16c1.81,1.44,3.51,2.73,5.14,4.09,1.31,1.07,2.5,2.29,3.81,3.36,4.24,3.45,6.43,7.89,6.08,13.34s-2.6,9.52-7.71,12c-2.27,1.1-4.2,2.94-6.22,4.51a2.83,2.83,0,0,0-.68,1.36c-.88,2.88.18,5.2,2.14,7.24.55.57,1.19,1.06,1.95,1.72-2.33,5.17-3.45,10.92-8.14,14.88l-.53-1.44c-.72.68-1.34,1.2-1.9,1.78-3.76,3.9-3.48,7.12.87,10.32.93.68,1.9,1.32,2.85,2l-.17.32-7-2.78c-.25,1.35-.55,2.47-.65,3.6a23,23,0,0,0,1.34,8.69c1.77,5.78,3.61,11.53,5.26,17.34,1.6,5.64,2,11.32-.09,17a15.94,15.94,0,0,0-.58,2.59,12.35,12.35,0,0,0,.51,7.16,10.46,10.46,0,0,1-.54,9.19,15.73,15.73,0,0,1-2.93,4.12,44.16,44.16,0,0,1-6.57,5.18,53.39,53.39,0,0,1-17.9,6.76,41.39,41.39,0,0,1-14.29.78,6.49,6.49,0,0,1-3.74-1.29,54.06,54.06,0,0,0,14.07-.18c5.42-.89,10.81-2.64,12.84-4.42a45.21,45.21,0,0,1-17.42,2,2.12,2.12,0,0,1,.79-.27c3.47-.67,7-1.29,10.42-2a37,37,0,0,0,9.88-3.11,9.35,9.35,0,0,0,4.48-4.85,3.34,3.34,0,0,0-.81.23c-5,3.56-10.8,5.32-16.78,6.5-5.06,1-10.13,2-15.17,3.05-1.55.33-3,.92-4.75,1.46l1.12,1.41L840,549c.28.33.39.53.56.63a57.93,57.93,0,0,0,10.71,5.71,24.71,24.71,0,0,1,7.55,4.09,8.75,8.75,0,0,1,2.65,3.31c-1.43-.67-2.69-1.53-4-2.27s-2.3-2-4.48-2.14a19,19,0,0,0,1.39,1.54c1.61,1.4,3.28,2.74,4.88,4.17a6.41,6.41,0,0,1,2.33,5.71,6.76,6.76,0,0,0,.82,3.81A20.49,20.49,0,0,1,858.78,596c-2.25,2.36-5.06,3.62-8.59,4.65l1.19-2.33c-1.14-.52-2.31-1-3.4-1.58s-1.34-1.26-.75-2.39a10.67,10.67,0,0,1,1.8-2.49c1.78-1.86,3.72-3.58,5.47-5.48a5.88,5.88,0,0,0,0-8.37c-.9-.93-1.77-1.73-1.65-3.16a1,1,0,0,0-.36-.77,13.24,13.24,0,0,0-7.47-3c.07.89.12,1.47.16,2a62.34,62.34,0,0,1-.71,15.44c-1.62,9-6.31,16.45-11.7,23.55a13,13,0,0,0-2.7,5.23c-.8,3.81-1.58,7.63-2.39,11.6l4,2.46-4.17.6v.35l5,1.69c-.42.93-.73,1.67-1.08,2.39-2,4.18-3.4,8.48-2.79,13.22a5.77,5.77,0,0,1-1.22,4.38c-1.83,2.33-3.85,4.51-6.81,5.41-3.17,1-6.38,1.8-9.58,2.65-4.69,1.23-9.39,2.42-14.26,3.67,0-1.66-1.08-1.23-1.92-1.13-6,.71-12,1.47-18,2.15-1.79.2-3.29.63-4,2.49a3.11,3.11,0,0,1-1,1.19,3.76,3.76,0,0,0-1.3,4.32c.92,3.72,1.81,7.45,2.46,11.22.76,4.41.77,8.82-1.15,13,0,.07-.2.08-.35.13,0-.24-.06-.45-.11-.65s-.1-.41-.22-.84c-4.19,5.93-8.46,11.56-16.61,11.31-7.51-.22-13.66-2.82-17.08-10.15a10.9,10.9,0,0,0,1.6,5.71c1,1.62,2.1,3.18,3.15,4.77l-.21.15-2.74-1.78a2.05,2.05,0,0,0,0,.59,2.19,2.19,0,0,0,.32.58,9.18,9.18,0,0,0,6.44,3.9c9,1.47,16.62-1,22.49-8.21.24-.29.45-.59.69-.86a7.21,7.21,0,0,1,.64-.59,14.47,14.47,0,0,1-6.07,8c-5.9,4-12.41,4.61-19.36,3l.87,2.54a16.39,16.39,0,0,1,.8,8.49c-1,5.28-4.27,9-8.44,12a5.44,5.44,0,0,1-2.71.74,11.55,11.55,0,0,0-7.51,3.35c-1,1-2,2.15-3,3.28A54.59,54.59,0,0,1,707.7,758l-3.1.08c-6.88-2.36-9.35-8.07-10.78-14.56l-.41.12.18,7.2-2.79-3c-.21.92-.35,1.62-.53,2.31a4.72,4.72,0,0,1-3.27,3.6,16.31,16.31,0,0,1-5,.73,6.42,6.42,0,0,1-6.16-4.88,30.47,30.47,0,0,1-.84-3.42c-.31-1.49-.54-3-.9-5-.79,1.13-1.28,1.84-1.78,2.54-1.82,2.5-3.56,5.08-5.5,7.49a23.36,23.36,0,0,1-9,7C656.92,758.64,656,759,655,759.38Zm-612.27-422c-5,.53-8.31,4.87-5,10.35l.11.2a24.77,24.77,0,0,0,14.54,10.83,13.46,13.46,0,0,0,3.06.27,2,2,0,0,0,2-1.39,7.2,7.2,0,0,0,.25-6,18.36,18.36,0,0,0-10.19-10.18c-2-.82-3.82-1-5.87.72ZM677.87,714.81c.49,1,1,1.88,1.44,2.86a56.45,56.45,0,0,1,2.53,6.1,15,15,0,0,1-1.92,13.31,43,43,0,0,1-4.51,5.41c-1.57,1.65-3.36,3.09-5,4.71-2.9,2.93-2.52,6.9.84,9.32,1.37,1,2.9,1.72,4.54,1a8.67,8.67,0,0,0,5.36-6.27c1.12-5.85,2.08-11.74,3-17.63.48-3.11,1.2-6.22.66-9.42A12.68,12.68,0,0,0,677.87,714.81ZM195.64,700.14c-.65,1.35-1.19,2.31-1.59,3.32-1.67,4.28-4.9,6.89-9,8.61a32.94,32.94,0,0,1-15.16,2.36,26.61,26.61,0,0,1-12-3.43,13.83,13.83,0,0,1-7-9.27,38.64,38.64,0,0,1-.57-6.81,4.32,4.32,0,0,1,2.22-3.85c.94-.58,2-1,2.88-1.64a20.2,20.2,0,0,0,1.83-1.52l-.33-.49c-1.61.67-3.29,1.21-4.82,2a8.65,8.65,0,0,0-4.21,5.2,15.45,15.45,0,0,0-.54,7.21,14,14,0,0,0,6,9.2,27.61,27.61,0,0,0,13.52,5c8.41.93,16.29-.58,23.43-5.35a16.34,16.34,0,0,0,5.74-7.13A3.4,3.4,0,0,0,195.64,700.14ZM494,389.84l-.42-.38a9,9,0,0,0-.89.57c-2.86,2.2-5.79,4.32-8.52,6.68a11.21,11.21,0,0,0-2.67,3.7A18.27,18.27,0,0,0,480.34,411a13.06,13.06,0,0,0,2.88,6.83,4.92,4.92,0,0,0,2.8,1.86c-.48-1.13-.83-1.93-1.15-2.73a17.66,17.66,0,0,1,.7-15.36,51.64,51.64,0,0,1,4-5.83C491,393.78,492.51,391.82,494,389.84ZM841.8,183.38c-2.89,1.11-3.76,2.42-3.51,5a16.58,16.58,0,0,0,5.86,11.05c2.25,2,4.75,3.72,7.15,5.55.85.65,1.74,1.25,3,2.12a10.6,10.6,0,0,0-3.58-6.42c-1.74-1.47-3.62-2.77-5.43-4.16a36.7,36.7,0,0,1-3.42-2.78,6.32,6.32,0,0,1-1.36-7.69C840.84,185.3,841.23,184.54,841.8,183.38ZM435.37,361.56l17.95,12,.39-.38-9.32-12.65a9.27,9.27,0,0,0-1,.54,4.51,4.51,0,0,1-5.72.34,2.5,2.5,0,0,0-1-.44C436.43,361,436.13,361.21,435.37,361.56ZM882.21,534c-1,.71-1.84,1.32-2.7,1.88a3.45,3.45,0,0,0-1.63,4.18c.7,2.13,0,3.88-1,5.65-.64,1.19-1.3,2.37-1.95,3.56a19.69,19.69,0,0,0,7.21-6.05C884.23,540.2,884.13,537.17,882.21,534Zm-805-5.63c-3.63,5.57-3.91,13,5.18,16.14C80.63,539.07,79,533.89,77.18,528.33ZM481.72,387.21c2.15-4,1.73-6.82-1.55-9.36s-6.74-5-10.21-7.37a37.09,37.09,0,0,0-4.62-2.35l-.31.45a25,25,0,0,0,2.25,2.24c2.21,1.72,4.5,3.34,6.74,5,2.63,2,5,4.16,6.29,7.26C480.85,384.38,481.22,385.73,481.72,387.21ZM862.21,262.67c13.42-.4,25.62,1.88,34.4,13.11C890.71,263.71,872,257.75,862.21,262.67ZM461.88,22.9c.34-6.33-7.73-16.54-13.72-17.54ZM303.41,544.5l-.63-.08q-3.06,9.66-6.14,19.31l.41.37a7.22,7.22,0,0,0,2.1-1.29,17.8,17.8,0,0,0,2.56-4.06,27.6,27.6,0,0,0,1.69-10C303.44,547.36,303.41,545.93,303.41,544.5ZM117.61,661.11c-.76-.22-1.52-.42-2.27-.68-3.28-1.1-6.59-2.09-9.8-3.37a7.67,7.67,0,0,1-5-6.29,2.86,2.86,0,0,0-2-2.5c.11,5,2.85,8.24,6.42,10.82C108.79,661.82,113,662.94,117.61,661.11ZM782.56,140.52l.38-.29-13.25-18.07-.38.28C771.45,130.15,776.24,135.9,782.56,140.52ZM281.28,733.35c-3.43.95-6.81,2.41-10.29,2.71s-7.13-.55-10.7-.9C266.38,740.73,277.66,738.49,281.28,733.35ZM687.6,751.28c.27,9.63,8.33,12.74,13.89,9.9C694.61,760.88,690.48,757,687.6,751.28ZM188.36,70.06l.54.2c.44-.54.9-1.08,1.32-1.64,1.51-2,2.94-4.06,4.52-6s3.18-2.26,5.48-1.23c.51.23,1,.48,2,1-.73-1.18-1.14-1.93-1.65-2.61-1.48-2-2.91-2.16-4.86-.56a11.19,11.19,0,0,0-2.15,2.2c-1.77,2.54-3.44,5.14-5.12,7.73C188.3,69.34,188.39,69.73,188.36,70.06Zm-28.65,639.6-.09.53c1.47,1,10.56,3.36,12.14,3.12,0-.07,0-.19,0-.21-3.62-2.25-7.23-4.5-10.87-6.7-.16-.1-.55.17-1.1.37l4.46,3.45-.19.32ZM632.6,759.27c3.4,4,9.89,5,13.48,2.09ZM890.22,457.11c-1.46,1.36-2.85,2.21-3.58,3.46a29.74,29.74,0,0,1-4.37,6.29c-.44.45-.7.92-.07,1.55,1.23-1.16,2.43-2.3,3.65-3.42,1-.89,2-1.7,2.93-2.66A5.56,5.56,0,0,0,890.22,457.11Zm-25.67,91.36c1.67-.72,3.37-1.4,5-2.18a16.9,16.9,0,0,0,5.93-4.53c.22-.26.21-.71.34-1.19C874.13,541.11,866.86,546,864.55,548.47ZM611.87,657.1c-.24,3.28-.45,6.18-.68,9.39C615,663.26,615.22,660.24,611.87,657.1Zm250.8-456.22,10-7C867.78,194.19,864.18,196.69,862.67,200.88Zm34.24,26.21c.05,5.94.82,12.17,1.56,13.38C899.73,235.72,898.84,231.34,896.91,227.09ZM342,467.61a12,12,0,0,1-6.58,8C340,476.4,342.84,472.83,342,467.61ZM172.5,710.08c2.63,2.31,6.1,3,7.65-.54ZM555.43,432.74l-4.34-2.93v2.93Z"/></symbol></defs><path class="cls-3" d="M1638.71-23.32V1249.54H-96.18V-23.32H1638.71m4-4H-100.18V1253.54H1642.71V-27.32Z"/><use width="924.25" height="763.05" transform="translate(2.18 5.5) scale(0.05)" xlink:href="#Logo"/></svg>