<svg id="Capa_1" data-name="Capa 1" xmlns="http://www.w3.org/2000/svg" viewBox="0 0 841.89 595.28"><defs><style>.cls-1{fill:#f15a22;}.cls-2,.cls-3{fill:#231f20;}.cls-3{stroke:#231f20;stroke-miterlimit:10;}</style></defs><path class="cls-1" d="M532.48,496.69l-4.52.12c-.11-.07-.21-.19-.33-.21-3.89-.8-6.22-3.32-7.6-6.9a29.53,29.53,0,0,1-1.77-7.88c-.07-.81-.21-1.61-.35-2.63l-3.64,3.31-.2-.19,2.18-2.94,2.15-2.91-.22-.25c-.69.44-1.4.84-2.06,1.32a18.48,18.48,0,0,1-7,3.16c-4.06.9-6.76-.13-9-3.58-1-1.55-2-3.16-2.9-4.76a8.63,8.63,0,0,1-1.19-3.91,7.09,7.09,0,0,1,3.14-6.76,7,7,0,0,1,7.44-.23c.34.18.69.34,1.15.56.9-2.86,1.94-5.55,2.7-8.46-.43,0-.68-.05-.93,0a19,19,0,0,1-2.12.14,2.67,2.67,0,0,1-2.79-2.48,6.44,6.44,0,0,1-.1-1.45,10.59,10.59,0,0,1,1-4.1c.89-1.83,1.81-3.65,2.69-5.49.5-1,1-2.07,1.42-3.14a4.24,4.24,0,0,0-.64-4.15c-.26-.35-.51-.71-.73-1,.68-1.46.68-1.46.28-3-.11-.39-.19-.78-.26-1.17-.27-1.48.15-2,1.65-1.93.3,0,.61.06.92.1l2.45.36a4,4,0,0,0,.35-3.75c-.29-.84-.7-1.63-1-2.45a7.7,7.7,0,0,1-.26-.94l.25-.19c.18.16.47.29.54.49.37.95.67,1.92,1,2.88.27.77.56,1.53.85,2.29a5.5,5.5,0,0,0-.56-4.25c-.51-.92-1-1.86-1.59-2.76-1.45-2.28-.83-4.34.6-6.48.34.48.59.9.9,1.26a24.15,24.15,0,0,0,2.48,2.75c2.12,1.77,4.5,1.66,6.92.68-1.17-.37-2.36-.63-3.55-.92a3.88,3.88,0,0,1-2.66-2c-.64-1.3-1.2-2.65-1.76-3.88.37-.65.7-.58,1.18-.35.82.4,1.69.69,2.61,1.05a4.16,4.16,0,0,0,0-3.69c-.7-1.28-1.32-2.6-2-3.92s-1.27-2.44-1.76-3.72a25.27,25.27,0,0,1-1-13.35,6.86,6.86,0,0,1,5-5.82,2.12,2.12,0,0,0,.45-.32l-.67-.3a9.53,9.53,0,0,1-5.92-6.07,27,27,0,0,1-1.39-14.24c.36-1.81.75-3.62,1.14-5.49a1.89,1.89,0,0,0-.4.15,4.57,4.57,0,0,0-1.81,3.68c-.05,1.15-.15,2.3-.24,3.75-1.34-2-1.56-3.79-.56-5.65.31-.59.69-1.13,1.05-1.7,1.76-2.81,1.71-5.24-.26-7.88-1.62-2.17-3.32-4.27-5-6.39a3.17,3.17,0,0,0-.34-.3l-.18.11c.8,1.54,1.61,3.07,2.44,4.66a1.68,1.68,0,0,1-.38,0,2,2,0,0,1-.35-.2,7.6,7.6,0,0,1-3.45-7.56c.28-2.41.92-4.78,1.42-7.16.33-1.54.71-3.08,1.07-4.65-.61-.3-1.13-.54-1.64-.8-1.57-.8-3.14-1.63-4.73-2.41a4.28,4.28,0,0,1-2.33-3.63c0-.3-.05-.61-.09-.92-.1-1-.1-1-1.19-1.1-1.76,4.79-5.38,7.68-8.84,6.87.83-.22,1.51-.38,2.17-.58s1.46-.08,2.11-.95c-1.08,0-1.94.06-2.8.06a7.24,7.24,0,0,1-5.41-2.13,11.26,11.26,0,0,1-3-5.4,5,5,0,0,1,1-4.15c.51.91.94,1.72,1.41,2.5a30.69,30.69,0,0,0,2,3.1c.82,1,1.4,1.06,2.73.38l-1.48-.6a9.48,9.48,0,0,1,4.05-3.08c-.23-.29-.36-.6-.5-.61-1.25-.1-1.43-1.15-1.88-2a4.9,4.9,0,0,0-.82-1.32,15.56,15.56,0,0,1-3.79-5.55c-.19-.43-.4-.85-.57-1.21l-4.37.48c-.56,1-1.08,2.11-1.7,3.13a5.19,5.19,0,0,1-3.49,2.44,1,1,0,0,1-1.31-.57c-.18-.4-.32-.91-1-1.11.15.77.3,1.46.4,2.15.39,2.67-.47,4.13-3,5-2.77.92-5.56,1.78-8.34,2.67-.4.13-.79.29-1.18.43a6.09,6.09,0,0,0,3.5.19,22.23,22.23,0,0,0,7.28-2.78l1.06-.58A6.3,6.3,0,0,1,468,314a18.93,18.93,0,0,1-5.44,1.66,16.64,16.64,0,0,1-10.62-1.34,20.84,20.84,0,0,1-7.81-7.42,7,7,0,0,1-.83-2.08,12.18,12.18,0,0,1,1.09-8.64,7.71,7.71,0,0,1,6-4.29,14.44,14.44,0,0,1,3.83-.07,10.19,10.19,0,0,1,6.39,3.22,4.29,4.29,0,0,1,1.29,3.75,6.68,6.68,0,0,1-1.93,3.72,3,3,0,0,1-3.72.48c.3-.24.55-.46.82-.66.5-.37,1-.72,1.53-1.07a1.52,1.52,0,0,0,.63-2.07,15.9,15.9,0,0,0-1.79-3.07c-1.59-2-3.19-2.15-5.39-.91a2.06,2.06,0,0,0-1.33,2.07,8.11,8.11,0,0,1-.36,2.09c-.2,1-.43,1.89-.6,2.85a4.45,4.45,0,0,0,.93,3.62,7.45,7.45,0,0,0,6.17,3.13c3.48,0,5.9-2,7.66-4.75a7.73,7.73,0,0,0,.72-7.14,41.43,41.43,0,0,0-1.93-4.37c-1.59-3.06-3.28-6.07-4.92-9.11-.17-.32-.31-.67-.46-1l.23-.13c.67.81,1.37,1.6,2,2.44a51.56,51.56,0,0,1,5,7.52,13.32,13.32,0,0,1-.14,13.1c-.13.25-.23.51-.34.76A6.85,6.85,0,0,0,468,299a29.92,29.92,0,0,0-10-18.26,2.09,2.09,0,0,0-1.13-.58,2.18,2.18,0,0,1-1.73-1.06c-.2-.29-.45-.53-.72-.85-1,1.13-1.71,2.52-2.93,3.79.12-1.08.22-1.82.27-2.57.11-1.72-.51-2.44-2.31-2.73-.41-.31-.8-.65-1.23-.93a11.71,11.71,0,0,1-5.2-6.61,36,36,0,0,1-.67-3.56c-1.19,4.15,1.55,9.59,7.13,11.06l.29,1a5.78,5.78,0,0,1-.73-.09,10.29,10.29,0,0,1-7.69-9.7c-.06-2,.09-4,.16-6,0-1.19.11-2.37.17-3.53-.14,0-.19-.07-.22-.06a4.13,4.13,0,0,0-.5.15,7.18,7.18,0,0,1-6.63-.56,33.72,33.72,0,0,1-3.25-2.49c-.18-.14-.31-.32-.48-.47s-.28-.2-.67-.46c1.36,3.92,4.26,6.23,6.94,8.76l-.35-1.29a2.28,2.28,0,0,1,.49.21,8.4,8.4,0,0,1,2.64,10.11,24,24,0,0,1-1.79,3.1c-1.44,2.18-2.94,4.32-4.39,6.5a14.06,14.06,0,0,0-2.22,4.65,5.11,5.11,0,0,0,3.55,6.37,13.87,13.87,0,0,0,1.55.35l1.14.26c-2.17,1.45-3.87.36-5.58-.64a1.66,1.66,0,0,1-2.09.33,10.09,10.09,0,0,1-5.71-13.63,10.31,10.31,0,0,0,1-3.19,9.64,9.64,0,0,0-6.52,6.38c-.54-.13-.68-.32-.46-.7,1.15-2.05,2.31-4.09,4.32-5.47a25.89,25.89,0,0,0,2.62-2c2.34-2.13,2.35-3.85-.08-5.84-2.2-1.79-4.52-3.42-6.8-5.11a1.54,1.54,0,0,0-.63-.12l-.16.23,1.55,1.74c2.45,2.71,2.34,4.62-.45,7-1.22,1-2.5,2-3.73,3a8.48,8.48,0,0,0-1.13,1.11,1.29,1.29,0,0,0-.24,1.37,2.66,2.66,0,0,0,4.17,1.17c.31-.24.56-.57.88-.8a4,4,0,0,1,.76-.33,9.33,9.33,0,0,1-2.18,2.36,3.27,3.27,0,0,1-4.21-.59,5.55,5.55,0,0,1,.35-5.84,17.71,17.71,0,0,0,1.7-2.37,2.22,2.22,0,0,0-.55-3.2,26.35,26.35,0,0,0-3.19-2.12c-2.34-1.43-4.72-2.8-7.05-4.25-1.24-.77-2.41-1.65-3.62-2.47a7.52,7.52,0,0,0-.89-.43,23.29,23.29,0,0,1-1.61,9,22.71,22.71,0,0,1-5,7.48c-2.42,2.47-5.72,4.89-7.22,5.27,7.07-5.29,12.1-11.66,12.36-20.8a4.51,4.51,0,0,0-.43,1.33,21.32,21.32,0,0,1-1.81,5.67,35.18,35.18,0,0,1-5.72,8.44c-3.78,4.08-8.38,6.14-14,5.43a1.9,1.9,0,0,0-2.32,1.9,25,25,0,0,0,.47,4.48c.7,3.4-.18,6.16-3.13,8.08-1.8,1.18-3.7,2.2-5.53,3.27-.55-.48-.72-.81-.13-1.14.81-.46,1.62-.93,2.44-1.37a10.51,10.51,0,0,0,4.84-5.44,5.77,5.77,0,0,0,.22-.74l-.26-.13c-.68.85-1.45,1.65-2,2.56a12.13,12.13,0,0,1-6.37,5.18,40,40,0,0,1-4.5,1.13c-2.41.5-4.59,1.39-6,3.51a22.07,22.07,0,0,0-1.8,3.22c-1.48,3.33-2.88,6.7-5.92,8.85a7.68,7.68,0,0,1,.63,1.9,46.77,46.77,0,0,1-.3,9.68,4.46,4.46,0,0,1-3.42,3.83,19.82,19.82,0,0,0-9.74,5.66,3.26,3.26,0,0,1-3.62.92l-1.27-.4a5.68,5.68,0,0,0-3-.14,6.64,6.64,0,0,0,.51,3.28,6.77,6.77,0,0,1,.73,3.34,4,4,0,0,1-1.95,3.27c.27-2,.51-3.8.79-5.91l-9.21,6.84a.88.88,0,0,0-.26,1.07,1.85,1.85,0,0,0,2,1.37c.93,0,1.86,0,2.79-.06-2.6,1.06-2.68,1.16-2.28,3.08a11.6,11.6,0,0,1,1.11-.72,13.63,13.63,0,0,1,2.32-1c1.07-.27,1.79.26,2.13,1.41l-1.2-.15c-2.27-.26-3.35,1-2.81,3.19a2.43,2.43,0,0,0,.13.38q1.77,4.72,3.55,9.44a5.75,5.75,0,0,0,.42.71,6.32,6.32,0,0,0,0-1.9,22,22,0,0,0-2-6.17c-.43-.95-.76-1.94-1.14-2.91l.27-.12c.72,1.21,1.46,2.41,2.16,3.63a10.79,10.79,0,0,1,1.63,4.73c.12,2.38.15,4.77.14,7.16a30.65,30.65,0,0,1-2.95,13.51c-.38.78-.68,1.61-1,2.47,1.25.71,2.42,1.34,3.55,2,2.24,1.33,2.72,2.67,1.88,5.13q-1.59,4.65-3.17,9.3c-.14.43-.24.87-.36,1.31l.21.07c.75-1.23,1.51-2.46,2.27-3.69-.51,3.88-1.6,7.44-5,9.9,1.15.76,2.2,1.48,3.28,2.15a12,12,0,0,1,4.71,5.61,19.39,19.39,0,0,1,1.21,11.95,51.61,51.61,0,0,1-3.18,9.28,22.75,22.75,0,0,0-1,2.86,4.59,4.59,0,0,0,.24,3.64l2.3-5.63.25.07-1.25,6.25.25.1,1.32-1.88c-.33,1.49-.65,2.68-.84,3.89a4.11,4.11,0,0,0,1.75,4.2,4.44,4.44,0,0,0,1.06-2.89,24.11,24.11,0,0,0-.46-2.91,4.35,4.35,0,0,1,1,1.66,7.06,7.06,0,0,0,3.47,4.18,26.06,26.06,0,0,1,3.27,2.26,15.15,15.15,0,0,1,5.73,15c-.56,3.65-2.65,6.08-6,6.81a23,23,0,0,1-3.82.28c-.6,0-1.21,0-1.92,0,0,2.53,0,4.91,0,7.3a20.58,20.58,0,0,0,.48,4.21,4.63,4.63,0,0,0,7.08,2.52c-1.12-.36-2.28-.67-3.38-1.12a5.27,5.27,0,0,1-3-2.83c-1.05-2.58-.25-5,.8-7.33a11.17,11.17,0,0,1,.08,2.08c0,1.1-.08,2.21,0,3.31a4.92,4.92,0,0,0,1.6,3.54,6.8,6.8,0,0,0,9.07-.36,22.36,22.36,0,0,0,2.31-3.53,13.78,13.78,0,0,0,.68-1.44,8.68,8.68,0,0,1,.08.94,10.65,10.65,0,0,1-3.11,7.41,43.35,43.35,0,0,1-4.9,4.07,7.51,7.51,0,0,1-3.12,1.36c-6.8,1-12.51-1.08-16.84-6.5a11,11,0,0,1-2.41-8.08c0-.22,0-.46,0-.93l-1.1,1.12c-.93,1-1.82,1.94-2.78,2.87a8.21,8.21,0,0,1-4.32,2.17,18.06,18.06,0,0,1-7.5-.38c-3.71-.9-5.71-3.14-6.1-6.93-.14-1.26-.08-2.54-.12-4.08-.52.46-.85.73-1.15,1l-9.19,9c-1.93,1.89-3.87,3.76-5.81,5.64a5.72,5.72,0,0,1,.48-.92A89.61,89.61,0,0,1,289,480.2c.58-.55,1.15-1.1,1.71-1.68a2.46,2.46,0,0,0,.31-.58.77.77,0,0,0-.68.15q-4.94,4.64-9.83,9.31a5.18,5.18,0,0,0-1.11,1.48,3.77,3.77,0,0,0-.52,3.1c-.41.46-.1.8.18,1.16.77,1,1.53,2,2.27,2.95a4.34,4.34,0,0,1,.41.78c-3.29-.05-5.45-1.81-6-4.83a7.41,7.41,0,0,1,1.14-6,130.79,130.79,0,0,0,8.18-13.21,4.12,4.12,0,0,0-.6-5.46,24.67,24.67,0,0,0-3.67-3.26,21.85,21.85,0,0,0-3.81-1.81,5.72,5.72,0,0,0-1.32-.26c3.82,5,6.54,10,4.51,16.37l-.29.06c-.28-3.32-.56-6.64-.85-10l-.8.1c.28,1.46.62,2.83.8,4.22.61,4.75-.75,8.76-4.68,11.71a17.75,17.75,0,0,1-7.15,3c-2.28.46-3.7-.25-4.47-2.45a11.72,11.72,0,0,1-.07-8.07,9.75,9.75,0,0,1,1.64-2.85c1.4-1.65,3.22-1.25,4.1.86l-1.71-.66a6.19,6.19,0,0,0-.45,5c.3,1,.78,2,2,2.06s1.84-.76,2.34-1.68a6.87,6.87,0,0,0,.53-5.16,12.52,12.52,0,0,0-6.65-7.89c-.34-.17-.7-.29-1.09-.45a4,4,0,0,0-.23.57,8.39,8.39,0,0,1-3.23,5,19.61,19.61,0,0,1-9.68,4.07c-5.88.79-11.11-.93-15.91-4.23a6.41,6.41,0,0,1-2.85-5.17,14.12,14.12,0,0,1,.28-3.55,6.71,6.71,0,0,1,6-5.65c.9-.13,1.81-.24,2.93-.39l-2.65-4.33c-1.25,2.07-2.49,4-4.48,5.17a7.64,7.64,0,0,1-6.42.76c.7-.11,1.41-.09,2.11-.16a7.26,7.26,0,0,0,6.39-4.5,6.15,6.15,0,0,0,.17-.88,12.81,12.81,0,0,1-4.72,3.58,5.76,5.76,0,0,1-5.5-.36,6.75,6.75,0,0,1,1.68,0c.88,0,1.77.09,2.65.09.17,0,.33-.21.5-.32-.13-.19-.24-.53-.4-.55a6.12,6.12,0,0,0-1.81-.06,4,4,0,0,1-3-.48c-1.41-1-2.69-2.15-4-3.24a.3.3,0,0,1-.07-.11c-1.16-2.1-2.33-4.19-2.3-6.7,0-.82-.09-1.63-.14-2.6l-1.3.71a11.68,11.68,0,0,1-4.63,1.53,12.2,12.2,0,0,1-7.76-2.21,6.64,6.64,0,0,1-3.36-7.08,1.58,1.58,0,0,0-.36-1.33c-3.53-4.69-3.71-9.59-.84-14.66a26.56,26.56,0,0,1,4.36-6.3c-.94-1.48-1.89-2.82-2.66-4.25a3.89,3.89,0,0,0-2.56-1.9c-2-.59-4.06-1.26-6.06-2a20.83,20.83,0,0,1-6.67-3.78,3.19,3.19,0,0,0-.55-.29,4,4,0,0,0-1.4-2,2.84,2.84,0,0,0,1.41,2c.29.42.56.87.88,1.28.67.83,1.37,1.65,2.05,2.47l-.17.21a8.65,8.65,0,0,1-1.19-.47,9.11,9.11,0,0,1-4.86-7.33,40.94,40.94,0,0,1,1-11.62,4.5,4.5,0,0,1,3.09-3.51,23,23,0,0,1,2.32-.54,22,22,0,0,0,2.3-.55,13.8,13.8,0,0,1,4.94-.94c2.43.12,4.85.35,7.28.5.41,0,1,.07,1.22-.17a5.27,5.27,0,0,0,1.56-3.33l-2.65.23c-2.42.2-4.85.43-7.28.6a9.37,9.37,0,0,1-5.32-1.35c-2.55-1.42-5.16-2.74-7.74-4.1l-1.11-.61.06-.21,3.46.21a11.86,11.86,0,0,1,1.92-11,5.65,5.65,0,0,0,.82-1.94c.27-1.16.42-2.35.62-3.53a1.84,1.84,0,0,0-2.88-1.94,7.21,7.21,0,0,0-3.13,3.17c-.78,1.63-1.42,3.33-2.18,5a18.77,18.77,0,0,1-1.61,3,5.54,5.54,0,0,1-5,2.3A10.76,10.76,0,0,1,164.7,359a9.58,9.58,0,0,1,1-8.89c1.08-1.57,2.17-3.13,3.15-4.75s2-3,3.94-3.54a1.89,1.89,0,0,0,.37-.24c0-1,.12-2,.13-3a3.5,3.5,0,0,1,2.21-3.34l2.72-1.3a2.77,2.77,0,0,0-.55-.31,6.35,6.35,0,0,0-7.3,2.74,39.41,39.41,0,0,0-2.14,3.82c-.79,1.48-1.5,3-2.34,4.46a3.83,3.83,0,0,1-3.91,2,5.54,5.54,0,0,1-4.4-2.9,3.75,3.75,0,0,1,1.23.37c.86.36,1.7.74,2.56,1.09a2.45,2.45,0,0,0,2.8-.63c1.63-1.56,2.42-3.64,3.66-5.42-.61-.48-.8-.14-.95.19a13.09,13.09,0,0,1-3.39,4c-1.38,1.27-2,1.32-3.5.22a11.78,11.78,0,0,1-2.13-2,22.08,22.08,0,0,1-2-3q-1.49-2.6-2.82-5.27a4.14,4.14,0,0,0-2.36-2.35c-.07,0-.11-.13-.19-.24a2.93,2.93,0,0,1,0-.49,2.42,2.42,0,0,1,1.7-2c1-.18,1.39.77,1.81,1.49.07.12.15.23.21.34.67,1.3,1.27,2.64,2,3.89a10.74,10.74,0,0,0,1.92,2.33,3,3,0,0,0,2.77.54c.94-.19,1-1,1.29-1.69,1.21-2.75,2.3-5.57,3.64-8.26,1.64-3.32,3.93-4.36,7.54-3.63,2.73.55,5.44,1.22,8.16,1.83a7.22,7.22,0,0,0,1,.07,19.61,19.61,0,0,1-8.1-10.61l1-.52a3,3,0,0,1-1.88-2.93,16.06,16.06,0,0,1,.55-3,1.78,1.78,0,0,1,1.88-1.39c.66,0,1.33.06,2,0a14.06,14.06,0,0,0,1.72-.37l-7.85-7.86,6.92-6.73a5.9,5.9,0,0,0-1-.25,7.65,7.65,0,0,0-6,1.72c-.94.79-1.8,1.7-2.67,2.58-.37.38-.71.68-1.34.21,0-.4,0-.88,0-1.36-.07-2.17-.1-4.34-.25-6.51a8.34,8.34,0,0,0-.61-2.15.92.92,0,0,0-1.27-.62c-1.06.35-2.18.6-2.75,1.76l-1.22-.82c-.07-.78-.08-1.5-.2-2.19-.18-1-.49-2.07-.66-3.11a14.64,14.64,0,0,1,.25-6.71,2.72,2.72,0,0,1,1.25-1.63,10.22,10.22,0,0,1,14.39,4c.15.29.34.56.61,1,.32-.46.71-.76.72-1.08,0-1.62-.05-3.24-.09-4.87-.4-.05-.62-.1-.83-.1a17.38,17.38,0,0,1-7.55-1.88c-1.79-.86-3.51-1.86-5.28-2.79-2.85-1.51-5.68-3.09-8.6-4.47a24,24,0,0,0-5.26-1.78,8.72,8.72,0,0,0-9.91,5.92,6.76,6.76,0,0,0,5,8.88c.26.07.51.16.92.29a4.67,4.67,0,0,1-5.07-1.4,8.82,8.82,0,0,1-1.94-8.05,7.59,7.59,0,0,1,3.13-4.6,18.36,18.36,0,0,1,6.68-2.82,9.86,9.86,0,0,1,6.48.62,49.51,49.51,0,0,0,5.68,2.22c2,.65,4,1.14,6,1.68a2.62,2.62,0,0,0,.79,0l.08-.33c-.4-.22-.82-.41-1.21-.66A45.14,45.14,0,0,1,163,259.9a10.16,10.16,0,0,1-3.56-5.48c-.74-2.79.54-5,3.37-5.58a13.92,13.92,0,0,1,7,.27,27.3,27.3,0,0,0,10.52.9c.64-.06,1.27-.22,1.91-.34a8.36,8.36,0,0,0-1.73-.33,22.12,22.12,0,0,1-7.6-2.68c-5.09-2.71-10.43-4.85-15.76-7a7.6,7.6,0,0,0-6.15.33,2.84,2.84,0,0,0-1.7,3.5,20.23,20.23,0,0,0,.84,2.37c.31.81.63,1.6,1,2.41a5.2,5.2,0,0,1-2.62-3.09,11.1,11.1,0,0,1-.52-4.58,2.94,2.94,0,0,1,1.9-2.66,7.14,7.14,0,0,1,2.32-.5,61.25,61.25,0,0,1,9.94.48,43.11,43.11,0,0,0,5.68.24,2.79,2.79,0,0,0,2.75-2.31,18.8,18.8,0,0,0,.46-3.27c.11-1.86.13-3.72.18-5.58,0-.28,0-.56,0-1-.75.46-1.33.86-1.94,1.2a34.28,34.28,0,0,1-4.46,2.31c-3.59,1.32-6.83.4-9.59-2.1a5.49,5.49,0,0,1-.89-7.36,3.73,3.73,0,0,1,4.14-1.68,8,8,0,0,1,5,3.5,6.47,6.47,0,0,1,.42.88,15.45,15.45,0,0,1-1.77-1.27,18.81,18.81,0,0,0-3.27-2,3.11,3.11,0,0,0-4.21,1.91,4.19,4.19,0,0,0-.16,2.73,5.45,5.45,0,0,0,2.15,3.1c5,3.72,13.18,1.67,15.35-4.56a26.24,26.24,0,0,1,2.37-5A13.32,13.32,0,0,1,184.32,211c.38,0,.76-.15,1.15-.24a1.49,1.49,0,0,0-1-1.45,8.35,8.35,0,0,0-9.06,1.94c-.25.27-.52.52-.91.91-.07-.56-.13-.9-.15-1.24a4.79,4.79,0,0,1,5-5.31c.79,0,1.59,0,2.39.09l2.07.13a9.82,9.82,0,0,1-.43-1.58,4.33,4.33,0,0,0-1.7-2.86,75.14,75.14,0,0,1-8.82-8.84,5.47,5.47,0,0,0-1.17-1.08,3.82,3.82,0,0,0-3.14-.67,5.68,5.68,0,0,0-4.33,5.49c0,.44,0,.89,0,1.33.31,2.86.63,5.72.94,8.58.05.45.08.89.14,1.64a6.79,6.79,0,0,1-.59-.63c-1.44-2.27-3-4.49-4.3-6.85a22.85,22.85,0,0,1-2.71-9.64,9.74,9.74,0,0,1,4.09-8.88,12.59,12.59,0,0,1,4.1-2.15c3.39-1,6.81-1.18,9.86.85,2.27,1.51,4.29,3.42,6.42,5.15.22.18.42.38.76.7a20.59,20.59,0,0,1,3.07-6.75,8.38,8.38,0,0,0,1.64-3.83c.06-.86.48-1.7.63-2.57.2-1.13-.14-1.65-1.26-1.95a8.33,8.33,0,0,0-2.09-.36,1.47,1.47,0,0,1-1.41-1,10.27,10.27,0,0,1-1.25-4.43,14.48,14.48,0,0,1,.89-5.34c.12-.36.21-.73.31-1.09l-.19-.07-1.11,1.36a6,6,0,0,1,2.34-5,12,12,0,0,1,5.67-2.44c1.15-.21,2.32-.33,3.41-.48-.74-1.36-1.55-2.63-2.14-4a27.43,27.43,0,0,1-1.18-3.8c-.83-3.09-1.62-6.18-4.3-8.62l1.37.2a9.81,9.81,0,0,0-3.08-2.61,4.77,4.77,0,0,0-3-.47,3.72,3.72,0,0,0-2.84,5.53c.34.62.76,1.2,1.12,1.81.17.28.29.59.49,1a13.34,13.34,0,0,1-1.4.3,5.86,5.86,0,0,1-6.06-4.56,9,9,0,0,1,4.33-10.1,10.43,10.43,0,0,1,7.09-1,17.28,17.28,0,0,1,9.84,5.9c.32.35.64.7.95,1.06L195,133q-1.19-5.19-2.39-10.42c1.2,0,1.84.74,2.56,1.37.93-2.19,1.79-4.32,2.72-6.41.39-.89.9-1.72,1.35-2.59a3.52,3.52,0,0,1,2.57-1.87c1.2-.27,2.38-.68,3.57-1a5.85,5.85,0,0,1,.71-.12l.1.21-2.89,1.56.13.27,4.12-1.14.14.31-3.74,2.31a1.5,1.5,0,0,0,.94,0c2.05-.57,4.07-1.25,6.14-1.7a13.46,13.46,0,0,1,10.59,1.75,9.31,9.31,0,0,1,4.28,9.13,4.59,4.59,0,0,1-2.86,4,10.51,10.51,0,0,1-6.56.37,4.79,4.79,0,0,1,1.09-.44,25.87,25.87,0,0,0,3.37-1.19,2.88,2.88,0,0,0,1.4-4,6,6,0,0,0-1.21-1.72,12.43,12.43,0,0,0-5.88-3.21,4.24,4.24,0,0,0-2.21.08,10.66,10.66,0,0,0-6.55,6c-1.3,3.07-.54,7.75,4.69,8.58,2.45.39,4.85-.11,7.25-.45.11,0,.19-.22.39-.46-1.44-.33-2.8.16-4.15-.22.33-.7.83-.52,1.23-.54,1.73-.06,3.46-.07,5.18-.15a15.91,15.91,0,0,0,2.76-.35,13.34,13.34,0,0,0,7-4.62c1.29-1.44,1.93-2.92,1.26-4.83a8.39,8.39,0,0,1-.26-1.43c-.91-5-2-9.9-2.17-15a14.67,14.67,0,0,0-4.89-10.56A6.64,6.64,0,0,0,222,93a2.09,2.09,0,0,0-2.47.79,4.9,4.9,0,0,0-1.24,3c0,1.63.1,3.27.25,4.89a18.61,18.61,0,0,0,.54,2.87,2.2,2.2,0,0,0,2.33,1.94,2.87,2.87,0,0,1,1.95,1,19.45,19.45,0,0,1,6,16.38,3.55,3.55,0,0,1-1,2.25c0-.58,0-.94.07-1.28a14.67,14.67,0,0,0-.39-5.4,36,36,0,0,0-4.19-9.58,2.52,2.52,0,0,0-1-1c-.89-.44-1.84-.77-2.67-1.1a1.36,1.36,0,0,0-.63,1.51c.09.71.17,1.41.21,2.12,0,.2-.16.41-.31.77a11.19,11.19,0,0,1-1.87-4.8c-.29-2.15-.62-4.3-.87-6.45-.37-3.26-.77-6.51-1-9.78s1.43-5.55,4.23-7.08a4.27,4.27,0,0,1,5.29.53,38.49,38.49,0,0,1,2.94,3.05c.68.76,1.25,1.62,1.89,2.4a2.41,2.41,0,0,0,.63.36l.21-.25c-.24-.35-.46-.71-.71-1-1.48-1.94-3-3.86-4.44-5.81a5.41,5.41,0,0,1-.45-.87c.26,0,.36-.08.42,0a1.85,1.85,0,0,1,.4.33,39.93,39.93,0,0,1,6.51,9c1.15,2.3,2.4,4.55,3.64,6.79a8.76,8.76,0,0,0,1.33,1.82,1.4,1.4,0,0,0,2.38-.08,8.85,8.85,0,0,0,1.25-1.87c1.45-2.88,2.86-5.79,4.28-8.69,1.26-2.54,2.46-5.11,3.8-7.6a12.69,12.69,0,0,1,2.16-2.84,2.1,2.1,0,0,1,3.11-.16,11.76,11.76,0,0,1,2,2.08c2.12,2.73,4.1,5.57,6.29,8.25a70.89,70.89,0,0,0,4.91,5.21A8,8,0,0,0,269.8,96a3.49,3.49,0,0,0,4.2-.51,22.69,22.69,0,0,0,2.08-2.39c.4-.48.67-1.15,1.17-1.42a4.17,4.17,0,0,0,1.67-2.11A26,26,0,0,1,280.55,87c.19-.28.41-.55.72-1l-2.66-.51c1.48-2.53,2.89-4.92,4.32-7.35l2.53.7a11.71,11.71,0,0,0,5.64.28,6.47,6.47,0,0,0,5.61-6.3c.08-1,.09-1.92.14-3,.83-.13,1.61-.32,2.39-.37,1-.06,1.26.22,1.38,1.2a6.48,6.48,0,0,1,.08,1.46c-.28,3.56,2.87,6.51,6.07,6.92a4.91,4.91,0,0,0,2.08-.22,1.4,1.4,0,0,0,.63-2.27,4.68,4.68,0,0,0-1.35-1c-.38-.22-.84-.27-1.24-.46A2.69,2.69,0,0,1,305.21,72a14,14,0,0,1,.56-1.8c3.59,0,5.58,1.3,6.78,4.43a5,5,0,0,0,2.58,2.73,10.52,10.52,0,0,0,7.62.86,19.24,19.24,0,0,1,6.45-.49c2.43.14,4.87.25,7.3.4a11.54,11.54,0,0,0,5.66-1.11c1.48-.68,3-1.17,4.64-1.77l.54,2.17a8.27,8.27,0,0,0,.82.18c2.5.27,3-.13,3.14-2.63.07-1.18.14-2.35.22-3.78.56.47,1,.77,1.34,1.13.8.77,1.53,1.61,2.35,2.35a14.35,14.35,0,0,0,2.41,1.86,5.26,5.26,0,0,0,5.12.13c-.37-.4-.66-.73-1-1-2-2-4-4-6-6-.49-.5-.77-1-.33-1.57l22.22-1.68-.24-1.46c.57.3,1,.55,1.48.78s.87.42,1.3.62l.12-.29c-5.45-7.32-13-9.59-21.93-9a13.18,13.18,0,0,1,5.34-.68,40.52,40.52,0,0,1,7.56,1.44c.79.22,1.59.39,2.38.59a12.39,12.39,0,0,0-5.84-3.58,20,20,0,0,0-10.75.14l-2.45.62a10.64,10.64,0,0,1,5.62-2.17,29,29,0,0,1,8.31.6,12,12,0,0,1,6.73,3.5c1.45,1.54,2.7,3.27,4,4.92.25.3.47.63.7.94a5.26,5.26,0,0,0-.27-1.79,28.65,28.65,0,0,1-1.14-8.39,10,10,0,0,1,6.15-9.71,34.42,34.42,0,0,1,6.76-2.33,14.55,14.55,0,0,1,7.24.06C405.58,43,410,47.42,412.45,54c.18.48.35,1,.55,1.49l1.41-.65a15.91,15.91,0,0,1,8.24-1.67,11.53,11.53,0,0,1,8.22,4.92,6,6,0,0,1-1.22-.67c-1.12-.7-2.21-1.49-3.39-2.08a8,8,0,0,0-6.28-.67c.08.1.11.21.18.23.45.17.92.31,1.37.48,2.71,1.07,5.54,1.85,7.83,3.82a4.09,4.09,0,0,0,3.77.75,19.27,19.27,0,0,1,2.48-.45,20,20,0,0,1,8.37,1c2.28.7,4.6,1.31,6.91,1.91a8.92,8.92,0,0,0,3.95.21A1.19,1.19,0,0,0,456,61.42a12.19,12.19,0,0,1,2.38-6.12,3.89,3.89,0,0,0,.62-1.55c.37-2.1.61-4.21,1-6.3a10,10,0,0,1,1-2.86,4,4,0,0,1,3.77-2.31c3.55.08,6.74,1.12,9,4,1.26,1.59,2.37,3.3,3.59,5l-1.05.7a1.58,1.58,0,0,0,.29.32,13.19,13.19,0,0,1,5.13,6.75,23.08,23.08,0,0,0,4.18,6.59l.43-.58a25.13,25.13,0,0,1,3.38,5,3.73,3.73,0,0,0,1.17,1.39,14.7,14.7,0,0,0,5.17,2.35,21.28,21.28,0,0,0,2.47.35c.05-.4.08-.61.1-.83.19-2.06,0-2.32-2.09-2.66a2.93,2.93,0,0,1-2.36-2.22,13.28,13.28,0,0,1-.16-4.62,1.34,1.34,0,0,1,.88-1.19c.77-.34,1.54-.68,2.3-1,1.92-.9,2-1.1.88-3a1.9,1.9,0,0,1-.13-2.18,4.2,4.2,0,0,0,.54-3.08c-.52-2.28-2.15-3.38-5-3.31a1.69,1.69,0,0,0-1.66,1.09c-.35.82-.67,1.64-1.06,2.43-.16.32-.46.75-.75.79-.57.09-.86-.41-.94-.92a19.13,19.13,0,0,1-.35-3.28,2.4,2.4,0,0,1,2.69-2.47,34.94,34.94,0,0,1,10.45,1.69,10,10,0,0,1,2.69,1.4,4.49,4.49,0,0,1,1.41,5.7,10.27,10.27,0,0,1-2.22,2.94,16.91,16.91,0,0,0-2.56,3.19,7.13,7.13,0,0,0,1.56,9,9.63,9.63,0,0,0,8,2.12,7.67,7.67,0,0,0,3.79-1.82,6.68,6.68,0,0,1,2.12-1.56c-.11,2-.62,3.87-.5,5.81a2.76,2.76,0,0,0,.78-.73c.52-.67,1-1.37,1.54-2,1.56-1.76,2.89-2.09,5-1,3.2,1.65,6.15,1.17,9-.74l1.07-.71c2.45,2.9,4.24,3.92,7.79,4.47.61.1,1.23.16,1.84.28,2.31.49,4.44,1.33,5.82,3.37a4.52,4.52,0,0,0,2.24,1.62c.24-.62-.24-1.6.85-1.69,2.65,2.16,4,5.29,6.09,8.19,1.31-4.55-.71-7.52-3.75-10.16a6.77,6.77,0,0,1,4.28,2.42c1,1.28,1.84,2.74,2.77,4.17.2-.25.45-.55.67-.87a57.73,57.73,0,0,1,5.59-7.43,6.84,6.84,0,0,0,1.17-1.76,2.85,2.85,0,0,0-.7-3.83,8.17,8.17,0,0,0-9.51-.65,3.82,3.82,0,0,0-.77,5.31,20.24,20.24,0,0,0,2.71,2.34,1.44,1.44,0,0,0,.88.2,5.45,5.45,0,0,0,4.52-2.39,3.15,3.15,0,0,0,.55-2c0-.72-.26-1.14-1.05-1.25-1.35-.18-2.7-.44-4.06-.65-.36-.06-.73-.09-1.25-.14.28.9.49,1.62.71,2.33.46,1.47.46,1.47.15,2.28l-1.79-5.22c2,.05,3.74,0,5.5.15a3,3,0,0,1,2.52,4.43,6.73,6.73,0,0,1-6.51,3.49,6.44,6.44,0,0,1-5.06-5.19,4.24,4.24,0,0,1,3.13-5.22c1.53-.42,3.08-.82,4.64-1.13,2.35-.46,4.72-1,7.11-.47,1.71.4,3.37,1,5,1.59.49.15,1,.32,1.65.54-.47-1.06-.83-1.89-1.2-2.71,1.25.68,2.31,1.44,2.39,3a10,10,0,0,0,.32,1.42,16.68,16.68,0,0,1,.49,5.67c-.1.71-.28,1.4-.44,2.16.14-.05.19-.06.22-.09a2.34,2.34,0,0,0,.25-.3,7.73,7.73,0,0,0,.54-8.3c-.2-.4-.39-.81-.58-1.21a3.46,3.46,0,0,1,2.53,3,13.13,13.13,0,0,1,0,3.43,12.68,12.68,0,0,1-3.93,7.23c-.32.32-.63.66-1.13,1.19.86-.07,1.43-.14,2-.15a17.65,17.65,0,0,1,2.52,0,4.19,4.19,0,0,1,4,4.48,9.76,9.76,0,0,1-1.38,4.8c-1.3,2.41-2.76,4.74-4.07,7.15a28.37,28.37,0,0,0-1.66,3.74,3,3,0,0,0,1.16,3.53,21.76,21.76,0,0,0,1.86,1.27c.7.47,1.43.9,2.09,1.41a7.4,7.4,0,0,1,2.85,4.36c0,.24.11.47.2.87.48-.44.83-.75,1.17-1.08,2.57-2.51,5.13-5,7.71-7.52a18.09,18.09,0,0,1,1.38-1.25c1.59-1.27,2.46-1.29,4,0a18.48,18.48,0,0,1,2.3,2.21,8.33,8.33,0,0,1,1.37,2.24,4.32,4.32,0,0,1,.2,2.91c-.41-1.07-.7-2-1.1-2.86a7.48,7.48,0,0,0-3.48-3.71c-1.27-.64-1.52-.58-2.65.67a16.47,16.47,0,0,1,2.09.4,6,6,0,0,1,1.75.89,1.79,1.79,0,0,1,.88,1.78l-3.1-1.61-.24.19a14.71,14.71,0,0,0,.95,2.83,38.92,38.92,0,0,0,3,4.54c1.42,1.87,3,3.63,4.46,5.45a9.9,9.9,0,0,1,2.14,4.79,15.42,15.42,0,0,0,3.39,7.55,14.87,14.87,0,0,1,2.22,4.18c1,2.63,2.23,5.2,3.4,7.78a7.28,7.28,0,0,0,3.15,3.32c.45.25.86.56,1.48,1l-2.07.05c1.32,1.3,2.88,1.45,4.14.31a25.26,25.26,0,0,0,2.41-2.65c2.22-2.71,4.41-5.44,6.63-8.15a6.77,6.77,0,0,1,.67-.61l.54.57-.83.92c2.53,1,2.89,1.56,2.75,4.32,0,.76-.09,1.53-.15,2.63,2.15-2.48,4.42-3.41,7.22-1.79,1.73,1,2.3,2.13,2.08,4.28l-2.06-3a11.76,11.76,0,0,0-1.33.57c-.2.12-.46.39-.45.58.06,1.83.23,3.64,1.72,5l7,6.3a1.42,1.42,0,0,0,.35.18c.11-.18.2-.32.28-.48a31.44,31.44,0,0,1,1.73-3.43,8.69,8.69,0,0,1,7.27-4.23,9.53,9.53,0,0,1,6.4,2.19c8.73,6.93,12.37,15.91,10.64,27a16.53,16.53,0,0,1-4.57,9.27,10,10,0,0,1-2.18,1.71,4.54,4.54,0,0,1-6.53-2,4.39,4.39,0,0,1-.56-1.48q-.27-3-.39-6c0-.74.52-1.14,1.31-1.48-.07.56-.14,1-.17,1.42a33.71,33.71,0,0,0-.28,4.36,5.08,5.08,0,0,0,3.31,4.45,2.52,2.52,0,0,0,1.78.14c1.73-.71,3.19-1.77,3.61-3.76a24.06,24.06,0,0,0,.31-8.46,33,33,0,0,0-4.75-12.58c-.26-.44-.51-.89-.76-1.33l.23-.18c.67.73,1.39,1.42,2,2.19a21,21,0,0,1,3.82,8.53c.36,1.56.67,3.12,1,4.68l.27,0c-.15-1.45-.22-2.91-.46-4.34a30.18,30.18,0,0,0-6.73-14,3.53,3.53,0,0,0-5.94.52,5.07,5.07,0,0,0-.65,1.58c-.29,1.25-.49,2.52-.73,3.78-.54,2.87-1,5.75-1.64,8.6a9.75,9.75,0,0,1-2.58,4.87,2.57,2.57,0,0,0-1,2.1l.39.48a3.9,3.9,0,0,1,.4,4.91c-.47.79-1.08,1.51-1.61,2.27a6.41,6.41,0,0,0-.41.79c3.06.15,6,.2,8.89.44,7.24.6,12.62,4,15.84,10.65a33.15,33.15,0,0,1,3.12,11.33c.26,2.69.42,5.4.84,8.06a50,50,0,0,0,3.83,11.85,6.32,6.32,0,0,0,1.23,1.87,3,3,0,0,0,5.1-1.05c.21-.53.26-1.12.42-1.67.22-.75.47-1.48.71-2.22l.08,3.19a3.28,3.28,0,0,0-.25.58,4.13,4.13,0,0,1-3.18,3.2,3.45,3.45,0,0,1-3.68-1.8c-.19-.3-.4-.59-.58-.9a42.19,42.19,0,0,1-4.8-12c-.56-2.42-1-4.86-1.43-7.3a2.15,2.15,0,0,0-1.56-1.8,3,3,0,0,0,0,.47c.84,3.81,1.65,7.62,2.54,11.41a33.26,33.26,0,0,0,4.88,11.69,4.1,4.1,0,0,1,.27.6,17.08,17.08,0,0,0-2-.13,1.6,1.6,0,0,1-1.72-1.1c-1.23-2.51-2.52-5-3.79-7.46a7.14,7.14,0,0,0-.55-.77,7.17,7.17,0,0,0,.87,3.3c.37,1.07.78,2.12,1.18,3.17l-.22.09-3.25-6.23c-.47.64-.83,1.14-1.2,1.62-1.55,2-3,2.44-5.69,1.57a11,11,0,0,0,1.14-.25,15.7,15.7,0,0,0,3.06-1.2c1.6-1,2-2.64,1.8-4.46a6.72,6.72,0,0,0-1,1.52,5.55,5.55,0,0,1-5.58,3.3l-1.59,0c-.28,0-.56,0-.84,0l0,.21,1.24.66a9.79,9.79,0,0,0,.21,1.44c2.08,6.59,4.18,13.16,6.24,19.75a14.08,14.08,0,0,0,2.19,4.36c.36.47.68,1,1,1.52l-1.92.55a8.7,8.7,0,0,1,.81.52c1.59,1.47,3.19,2.93,4.75,4.43a5.11,5.11,0,0,0,6.79.44,9.78,9.78,0,0,0,2.88-3.59,15.22,15.22,0,0,0,1.35-6.71v-1.53a6,6,0,0,1,.5,2.22,14.14,14.14,0,0,1-.11,2.52c-.59,4.24-2.57,7.48-6.64,9.23a2.31,2.31,0,0,1-1.89.15,3.58,3.58,0,0,0-4.2,1.1,11.83,11.83,0,0,0-1.08,1.35,9.55,9.55,0,0,1-2.68,3.08.93.93,0,0,0-.25.3l-3,5.32c.53.46,1.08.32,1.65-.22.23-.23.45-.7,1-.42-.27.48-.53.92-.74,1.3,1.09.86,2.11,1.64,3.09,2.45.78.65,1.5,1.38,2.29,2a9.17,9.17,0,0,1,3.65,8,8,8,0,0,1-4.63,7.21,22.65,22.65,0,0,0-3.74,2.71,1.59,1.59,0,0,0-.4.82,4.16,4.16,0,0,0,1.28,4.34c.33.35.72.64,1.17,1-1.4,3.11-2.07,6.57-4.89,8.94l-.32-.86c-.43.4-.8.72-1.14,1.06-2.25,2.35-2.09,4.28.53,6.2.56.41,1.13.79,1.71,1.19l-.1.2-4.19-1.67c-.14.81-.32,1.48-.38,2.16a13.91,13.91,0,0,0,.8,5.22c1.06,3.46,2.17,6.92,3.16,10.41a16.15,16.15,0,0,1-.06,10.19,8.91,8.91,0,0,0-.34,1.55,7.43,7.43,0,0,0,.3,4.3,6.27,6.27,0,0,1-.32,5.52,9.32,9.32,0,0,1-1.76,2.47,25.75,25.75,0,0,1-3.95,3.11,32,32,0,0,1-10.75,4.06,24.76,24.76,0,0,1-8.58.47,3.85,3.85,0,0,1-2.24-.78,32.16,32.16,0,0,0,8.45-.1c3.25-.54,6.49-1.59,7.71-2.66a27,27,0,0,1-10.46,1.2,1.38,1.38,0,0,1,.47-.16c2.09-.4,4.18-.77,6.26-1.21a22.13,22.13,0,0,0,5.93-1.87,5.61,5.61,0,0,0,2.69-2.91,1.88,1.88,0,0,0-.49.14,25.75,25.75,0,0,1-10.07,3.9c-3,.6-6.08,1.19-9.11,1.83-.93.2-1.82.56-2.85.88l.67.84-1,.42a2,2,0,0,0,.34.38,35.42,35.42,0,0,0,6.43,3.43,15.13,15.13,0,0,1,4.54,2.45,5.22,5.22,0,0,1,1.58,2c-.85-.4-1.61-.92-2.41-1.37s-1.38-1.18-2.7-1.28a12.24,12.24,0,0,0,.84.93c1,.84,2,1.64,2.93,2.5a3.84,3.84,0,0,1,1.4,3.43,4.07,4.07,0,0,0,.49,2.29,12.3,12.3,0,0,1-2.14,13.46,10.87,10.87,0,0,1-5.16,2.79l.71-1.39c-.68-.32-1.39-.59-2-.95s-.8-.76-.45-1.43a6.44,6.44,0,0,1,1.08-1.5c1.07-1.12,2.24-2.15,3.28-3.29a3.53,3.53,0,0,0,0-5c-.54-.56-1.06-1-1-1.89a.64.64,0,0,0-.21-.47,8,8,0,0,0-4.49-1.79c0,.54.07.89.1,1.24a37.4,37.4,0,0,1-.43,9.27c-1,5.37-3.79,9.87-7,14.13a7.92,7.92,0,0,0-1.63,3.15c-.48,2.29-.94,4.58-1.43,7,.64.41,1.37.86,2.37,1.48l-2.5.36v.21l3,1c-.25.56-.43,1-.64,1.44a13.81,13.81,0,0,0-1.68,7.94,3.52,3.52,0,0,1-.73,2.63,8.55,8.55,0,0,1-4.09,3.25c-1.9.57-3.83,1.08-5.76,1.58-2.81.74-5.63,1.46-8.56,2.21,0-1-.64-.74-1.15-.68-3.61.43-7.21.89-10.82,1.29a2.49,2.49,0,0,0-2.41,1.5,1.91,1.91,0,0,1-.59.71,2.24,2.24,0,0,0-.78,2.59c.55,2.24,1.08,4.48,1.47,6.75a13,13,0,0,1-.69,7.81s-.12,0-.21.08c0-.14,0-.27-.06-.39s-.07-.25-.13-.5c-2.52,3.56-5.09,6.93-10,6.79-4.51-.14-8.2-1.7-10.25-6.1a6.46,6.46,0,0,0,1,3.43c.59,1,1.26,1.91,1.89,2.86l-.13.1L583,465.67a1.77,1.77,0,0,0,0,.36,2.37,2.37,0,0,0,.19.35,5.54,5.54,0,0,0,3.87,2.34c5.42.88,10-.61,13.51-4.93l.41-.52c.12-.13.26-.23.38-.35a8.68,8.68,0,0,1-3.64,4.8c-3.54,2.43-7.45,2.76-11.62,1.81.21.62.36,1.08.52,1.53a9.85,9.85,0,0,1,.48,5.1c-.58,3.17-2.57,5.38-5.07,7.2a3.27,3.27,0,0,1-1.62.44,6.91,6.91,0,0,0-4.51,2c-.63.62-1.22,1.29-1.79,2a32.65,32.65,0,0,1-10,8.11l-1.86.05c-4.13-1.42-5.62-4.85-6.47-8.74l-.25.07.11,4.32L554,489.77c-.12.55-.21,1-.32,1.39a2.83,2.83,0,0,1-2,2.16,9.85,9.85,0,0,1-3,.44,3.86,3.86,0,0,1-3.69-2.93,18.22,18.22,0,0,1-.51-2.06c-.18-.89-.32-1.78-.54-3-.47.68-.76,1.11-1.07,1.53-1.09,1.5-2.13,3.05-3.3,4.49a13.94,13.94,0,0,1-5.4,4.21C533.62,496.25,533,496.47,532.48,496.69ZM164.83,243.3c-3,.32-5,2.92-3,6.21l.06.12a14.85,14.85,0,0,0,8.73,6.5,7.51,7.51,0,0,0,1.84.17,1.2,1.2,0,0,0,1.22-.84,4.29,4.29,0,0,0,.16-3.59,11,11,0,0,0-6.12-6.11,3,3,0,0,0-3.53.43ZM546.2,469.93c.29.57.61,1.13.87,1.72a34,34,0,0,1,1.51,3.66,9,9,0,0,1-1.15,8,24.71,24.71,0,0,1-2.71,3.25c-.94,1-2,1.86-3,2.83a3.5,3.5,0,0,0,.5,5.6,2.66,2.66,0,0,0,2.73.58,5.22,5.22,0,0,0,3.22-3.77c.67-3.51,1.25-7,1.79-10.58a17.65,17.65,0,0,0,.4-5.66A7.63,7.63,0,0,0,546.2,469.93Zm-289.56-8.81c-.39.81-.71,1.39-.95,2a9.22,9.22,0,0,1-5.41,5.17,19.88,19.88,0,0,1-9.11,1.42,16.25,16.25,0,0,1-7.21-2.06,8.35,8.35,0,0,1-4.18-5.57,24.19,24.19,0,0,1-.34-4.09,2.6,2.6,0,0,1,1.34-2.31c.56-.35,1.17-.63,1.72-1a10.62,10.62,0,0,0,1.1-.91l-.2-.29c-1,.4-2,.72-2.89,1.21a5.24,5.24,0,0,0-2.53,3.13,9.3,9.3,0,0,0-.32,4.32,8.35,8.35,0,0,0,3.6,5.53,16.5,16.5,0,0,0,8.12,3,20.47,20.47,0,0,0,14.07-3.21,9.89,9.89,0,0,0,3.45-4.28A2.06,2.06,0,0,0,256.64,461.12ZM435.8,274.8l-.25-.22a6.1,6.1,0,0,0-.54.34c-1.71,1.32-3.47,2.59-5.11,4a6.6,6.6,0,0,0-1.61,2.22,11,11,0,0,0-.7,6.37,7.91,7.91,0,0,0,1.73,4.1,2.94,2.94,0,0,0,1.68,1.12c-.29-.68-.5-1.16-.69-1.64a10.6,10.6,0,0,1,.42-9.23,32.56,32.56,0,0,1,2.38-3.49C434,277.17,434.9,276,435.8,274.8Zm208.83-124c-1.73.67-2.26,1.46-2.11,3A10,10,0,0,0,646,160.5c1.36,1.19,2.85,2.23,4.29,3.33.51.39,1,.75,1.79,1.27a6.41,6.41,0,0,0-2.15-3.86c-1-.88-2.18-1.66-3.26-2.49a22.09,22.09,0,0,1-2.06-1.67,3.79,3.79,0,0,1-.81-4.62C644.05,152,644.29,151.53,644.63,150.83Zm-244,107L411.37,265l.23-.23q-2.79-3.8-5.6-7.6a4.69,4.69,0,0,0-.58.33,2.71,2.71,0,0,1-3.43.2,1.61,1.61,0,0,0-.6-.27C401.22,257.46,401.05,257.61,400.59,257.82Zm268.3,103.52c-.6.43-1.1.79-1.61,1.13a2.07,2.07,0,0,0-1,2.51,4.09,4.09,0,0,1-.59,3.39c-.38.72-.78,1.43-1.17,2.14a11.82,11.82,0,0,0,4.34-3.63A4.71,4.71,0,0,0,668.89,361.34ZM185.51,358c-2.18,3.34-2.35,7.83,3.11,9.69Zm242.91-84.74c1.29-2.38,1-4.09-.93-5.61s-4.05-3-6.13-4.43a23.24,23.24,0,0,0-2.77-1.41l-.19.27a15.64,15.64,0,0,0,1.35,1.35c1.33,1,2.7,2,4.05,3a10.77,10.77,0,0,1,3.77,4.37C427.9,271.53,428.12,272.34,428.42,273.22Zm228.46-74.78c8.06-.24,15.39,1.13,20.66,7.88C674,199.07,662.74,195.49,656.88,198.44Zm-240.37-144c.2-3.8-4.64-9.93-8.24-10.53Zm-95.16,313.2-.37-.05-3.69,11.6.24.22a4.25,4.25,0,0,0,1.26-.77,10.65,10.65,0,0,0,1.54-2.44,16.7,16.7,0,0,0,1-6C321.37,369.39,321.35,368.53,321.35,367.67Zm-111.56,70c-.46-.14-.92-.26-1.37-.41-2-.66-3.95-1.26-5.88-2a4.59,4.59,0,0,1-3-3.78,1.71,1.71,0,0,0-1.19-1.5c.06,3,1.71,4.95,3.85,6.5A7.57,7.57,0,0,0,209.79,437.69ZM609.06,125.1l.23-.17-8-10.86-.23.17A20,20,0,0,0,609.06,125.1Zm-301,356a34.37,34.37,0,0,1-6.18,1.63,36.06,36.06,0,0,1-6.42-.54C299.12,485.5,305.89,484.15,308.06,481.06Zm244,10.77c.16,5.78,5,7.65,8.34,5.95C556.25,497.6,553.77,495.25,552,491.83Zm-299.77-409,.33.12.79-1c.9-1.2,1.76-2.44,2.71-3.6a2.38,2.38,0,0,1,3.29-.74c.31.13.61.28,1.21.56-.44-.7-.69-1.16-1-1.56-.89-1.19-1.75-1.3-2.92-.34a6.45,6.45,0,0,0-1.29,1.32c-1.06,1.53-2.07,3.09-3.07,4.64C252.23,82.36,252.29,82.59,252.27,82.79Zm-17.2,384-.06.32A25.27,25.27,0,0,0,242.3,469s0-.11,0-.12c-2.17-1.35-4.34-2.7-6.52-4-.1-.06-.33.11-.66.23l2.67,2.07-.11.19Zm284,29.79c2,2.41,5.94,3,8.09,1.25ZM673.71,315.2a11.7,11.7,0,0,0-2.16,2.07,18,18,0,0,1-2.62,3.78c-.26.27-.42.55,0,.93.74-.69,1.46-1.38,2.19-2.05s1.22-1,1.76-1.6A3.36,3.36,0,0,0,673.71,315.2Zm-15.42,54.86c1-.44,2-.85,3-1.32a10,10,0,0,0,3.56-2.72,1.89,1.89,0,0,0,.2-.71A30.39,30.39,0,0,0,658.29,370.06ZM506.57,435.28c-.14,2-.27,3.71-.41,5.64C508.45,439,508.58,437.17,506.57,435.28ZM657.16,161.34l6-4.18A6.34,6.34,0,0,0,657.16,161.34Zm20.56,15.74c0,3.57.5,7.31.94,8A11.58,11.58,0,0,0,677.72,177.08ZM344.5,321.5a7.26,7.26,0,0,1-3.95,4.81C343.31,326.78,345,324.64,344.5,321.5ZM242.75,467.09c1.58,1.39,3.66,1.81,4.59-.32ZM472.68,300.56l-2.6-1.76v1.76Z"/><path class="cls-2" d="M347.15,381l0-44.8H363.5a26.92,26.92,0,0,1,7.8,1.14,15.79,15.79,0,0,1,5.77,3.5c2.83,2.71,4.62,5.38,4.62,10.41v1.12a14.47,14.47,0,0,1-3,8.72A10.79,10.79,0,0,1,374,365L384.72,381H371.41l-13.31-17.5V381Zm23.16-28.82a4.71,4.71,0,0,0-1.76-3.62c-1.16-1-3.65-1.49-5.7-1.49h-4.78v10.42h4.07v0h2.37A5.62,5.62,0,0,0,370.31,352.21Z"/><path class="cls-2" d="M387.5,381v-44.8h10.95V381Z"/><path class="cls-2" d="M428.52,336a24.81,24.81,0,0,1,16.22,6.89l.71.69-7.87,7.8-.74-.68a13.57,13.57,0,0,0-9.59-3.72,13.85,13.85,0,0,0-9.55,3.43,10.56,10.56,0,0,0,0,16.53,14,14,0,0,0,9.56,3.41,13.49,13.49,0,0,0,9.62-3.72l.73-.69,7.87,7.8-.69.69a23.63,23.63,0,0,1-7.69,5.07,27.52,27.52,0,0,1-27.77-4.79,22,22,0,0,1,0-32.15,26,26,0,0,1,17.9-6.7h1.33Z"/><path class="cls-2" d="M449.36,336.23h10.92v17h15v-17h10.92V381H475.26v-17h-15v17H449.36Z"/><path class="cls-2" d="M358.94,389.8a24.81,24.81,0,0,1,16.22,6.89l.72.68L368,405.18l-.73-.68a13.57,13.57,0,0,0-9.6-3.72,13.91,13.91,0,0,0-9.55,3.42,10.59,10.59,0,0,0-4,8.27,10.47,10.47,0,0,0,4,8.27,14,14,0,0,0,9.55,3.41,13.47,13.47,0,0,0,9.62-3.72l.74-.69,7.87,7.8-.7.69a23.72,23.72,0,0,1-7.68,5.06,27.56,27.56,0,0,1-27.78-4.78,22,22,0,0,1,0-32.15,26,26,0,0,1,17.9-6.7H359Z"/><path class="cls-2" d="M398.54,389.66c6.86,0,12,2.25,16.88,6.7a22,22,0,0,1,0,32.15,24.86,24.86,0,0,1-33.76,0,22,22,0,0,1,0-32.15C386.56,391.91,391.68,389.66,398.54,389.66Zm0,11a11.68,11.68,0,0,0-8.63,3.43,10.65,10.65,0,0,0,0,16.54,12.61,12.61,0,0,0,17.24,0,10.42,10.42,0,0,0,4-8.26,10.57,10.57,0,0,0-4-8.27A11.79,11.79,0,0,0,398.54,400.69Z"/><path class="cls-2" d="M466,390l-21.59,44.8h-2.34L420.57,390h11.66l11,23.07,11-23.07Z"/><path class="cls-2" d="M454.7,434.82l21.61-44.74h2.59l21.63,44.74H488.64L485.32,428H469.88l-3.32,6.81Zm20-15.73h5.77L477.63,413Z"/><path class="cls-3" d="M271.48,537.08h-2.75L266.92,532a4.73,4.73,0,0,0-1.62-2.23,4.11,4.11,0,0,0-2.59-.87H258v8.22h-2.55V517.86H264a12.68,12.68,0,0,1,3.64.43,4.15,4.15,0,0,1,2.31,1.82,5.64,5.64,0,0,1,.89,3.14,4.91,4.91,0,0,1-1.15,3.33,5.45,5.45,0,0,1-3.16,1.74v.06c1.34.42,2.35,1.58,3.05,3.47ZM258,526.58h5.68a6.11,6.11,0,0,0,3.44-.75,2.94,2.94,0,0,0,1.07-2.58q0-3.29-4.12-3.28H258Z"/><path class="cls-3" d="M310.93,537.41a8,8,0,0,1-5-1.3,5.52,5.52,0,0,1-2.1-3.05,17.05,17.05,0,0,1-.44-4.08V517.86h2.55v11.08q0,3.79,1.27,5a6.38,6.38,0,0,0,7.45,0q1.27-1.18,1.27-5V517.86h2.56V529a12.08,12.08,0,0,1-.83,5.14,5.39,5.39,0,0,1-2.52,2.47A9.48,9.48,0,0,1,310.93,537.41Z"/><path class="cls-3" d="M363.23,537.08h-11.9V517.86h2.55V534.8h9.35Z"/><path class="cls-3" d="M403.14,517.53a8.67,8.67,0,0,1,6.61,2.73,11.4,11.4,0,0,1,0,14.42,9.4,9.4,0,0,1-13.25,0,11.36,11.36,0,0,1,0-14.42A8.75,8.75,0,0,1,403.14,517.53Zm0,17.7a6.08,6.08,0,0,0,4.73-2,9.79,9.79,0,0,0,0-11.44,6,6,0,0,0-4.68-2,6.14,6.14,0,0,0-4.76,2,9.75,9.75,0,0,0,0,11.43A6,6,0,0,0,403.11,535.23ZM406.47,513l-2.9,3.69h-1.94l1.75-3.69Z"/><path class="cls-3" d="M456.14,537.08H444.25V517.86h2.54V534.8h9.35Z"/><path class="cls-3" d="M496.05,517.53a8.66,8.66,0,0,1,6.61,2.73,11.36,11.36,0,0,1,0,14.42,9.39,9.39,0,0,1-13.24,0,11.33,11.33,0,0,1,0-14.42A8.72,8.72,0,0,1,496.05,517.53Zm0,17.7a6.1,6.1,0,0,0,4.73-2,9.81,9.81,0,0,0,0-11.44,6,6,0,0,0-4.68-2,6.12,6.12,0,0,0-4.75,2,9.73,9.73,0,0,0,0,11.43A6,6,0,0,0,496,535.23Z"/><path class="cls-3" d="M545.57,537.41a8.82,8.82,0,0,1-6.72-2.71,11.49,11.49,0,0,1,0-14.46,8.73,8.73,0,0,1,6.68-2.71,9.62,9.62,0,0,1,5.78,1.67,6,6,0,0,1,2.57,4.48h-2.63a3.82,3.82,0,0,0-1.68-2.92,6.94,6.94,0,0,0-4-1,6.1,6.1,0,0,0-4.8,2,9.89,9.89,0,0,0,0,11.46,6.15,6.15,0,0,0,4.8,2q4.15,0,6.18-2.74v-2.92h-5.08v-2.3h7.54v9.81h-1.79l-.67-2Q549.77,537.42,545.57,537.41Z"/><path class="cls-3" d="M594.92,517.53a8.66,8.66,0,0,1,6.61,2.73,11.4,11.4,0,0,1,0,14.42,9.39,9.39,0,0,1-13.24,0,11.33,11.33,0,0,1,0-14.42A8.72,8.72,0,0,1,594.92,517.53Zm0,17.7a6.1,6.1,0,0,0,4.73-2,9.81,9.81,0,0,0,0-11.44,6,6,0,0,0-4.68-2,6.12,6.12,0,0,0-4.75,2,9.73,9.73,0,0,0,0,11.43A6,6,0,0,0,594.9,535.23Z"/></svg>