<svg id="Capa_1" data-name="Capa 1" xmlns="http://www.w3.org/2000/svg" viewBox="0 0 841.89 595.28"><defs><style>.cls-1{fill:#231f20;}.cls-2{fill:#f15a22;}.cls-3{fill:#f9ed25;}.cls-4{fill:#00aeef;stroke:#00aeef;stroke-miterlimit:10;}</style></defs><rect class="cls-1" x="1.59" width="841.89" height="595.28"/><path class="cls-2" d="M538.36,497.94l-4.52.11a1.11,1.11,0,0,0-.32-.21c-3.89-.8-6.23-3.31-7.6-6.9a29.16,29.16,0,0,1-1.77-7.87c-.08-.81-.21-1.61-.35-2.63l-3.64,3.3-.2-.19,2.18-2.94,2.15-2.91-.22-.24c-.69.43-1.4.84-2.06,1.32a18.8,18.8,0,0,1-7,3.16c-4.06.9-6.77-.13-9-3.59-1-1.55-2-3.15-2.9-4.76a8.51,8.51,0,0,1-1.19-3.9,7.09,7.09,0,0,1,3.14-6.77,6.93,6.93,0,0,1,7.44-.22l1.15.55c.9-2.86,1.94-5.55,2.7-8.46a8.44,8.44,0,0,0-.94,0c-.7,0-1.41.17-2.11.14a2.68,2.68,0,0,1-2.8-2.49,5.87,5.87,0,0,1-.09-1.45,10.59,10.59,0,0,1,1-4.1c.89-1.83,1.8-3.65,2.69-5.48.49-1,1-2.07,1.41-3.15a4.2,4.2,0,0,0-.64-4.15l-.72-1c.68-1.47.68-1.47.27-3-.1-.38-.18-.77-.26-1.17-.26-1.47.15-2,1.65-1.92a9.24,9.24,0,0,1,.92.1c.82.11,1.64.24,2.45.36a4,4,0,0,0,.36-3.76c-.29-.83-.7-1.62-1-2.44a7.38,7.38,0,0,1-.26-.95l.24-.18c.19.16.47.28.55.48.36.95.66,1.93,1,2.89.27.76.56,1.52.84,2.28a5.43,5.43,0,0,0-.55-4.24c-.52-.93-1-1.87-1.59-2.76-1.45-2.28-.84-4.35.6-6.48.34.47.59.89.9,1.25a22.48,22.48,0,0,0,2.48,2.75c2.11,1.78,4.49,1.66,6.92.69-1.18-.37-2.37-.64-3.55-.92a3.85,3.85,0,0,1-2.66-2c-.65-1.3-1.21-2.64-1.77-3.88.38-.65.71-.58,1.19-.34.82.4,1.69.68,2.61,1a4.2,4.2,0,0,0,0-3.69c-.7-1.28-1.32-2.6-2-3.91s-1.26-2.45-1.75-3.72a25.21,25.21,0,0,1-1-13.36,6.84,6.84,0,0,1,5-5.81,2.21,2.21,0,0,0,.45-.33c-.28-.12-.47-.22-.68-.3a9.56,9.56,0,0,1-5.92-6.07,27,27,0,0,1-1.38-14.24c.35-1.81.75-3.61,1.14-5.48a1.55,1.55,0,0,0-.41.15,4.54,4.54,0,0,0-1.8,3.68c-.05,1.15-.15,2.3-.24,3.74-1.35-2-1.56-3.79-.57-5.65.31-.58.7-1.13,1.05-1.69,1.76-2.82,1.72-5.25-.25-7.89-1.62-2.16-3.33-4.26-5-6.38a2,2,0,0,0-.34-.31l-.17.12c.8,1.53,1.6,3.07,2.44,4.66-.23,0-.32,0-.39,0a1.68,1.68,0,0,1-.34-.2,7.58,7.58,0,0,1-3.45-7.56c.28-2.41.91-4.78,1.42-7.15.33-1.55.71-3.08,1.07-4.65l-1.64-.81c-1.58-.8-3.14-1.62-4.73-2.41a4.22,4.22,0,0,1-2.33-3.62c0-.31-.06-.62-.09-.93-.11-1-.11-1-1.19-1.09-1.76,4.78-5.39,7.67-8.84,6.86.83-.22,1.51-.37,2.17-.58s1.46-.07,2.1-1c-1.08,0-1.93.07-2.79.07a7.23,7.23,0,0,1-5.41-2.14,11.13,11.13,0,0,1-3-5.4,5,5,0,0,1,1-4.15c.52.91.94,1.73,1.42,2.5a32.56,32.56,0,0,0,2,3.11c.82,1,1.41,1.06,2.74.38l-1.48-.61a9.49,9.49,0,0,1,4.05-3.08c-.24-.29-.36-.6-.51-.61-1.24-.09-1.43-1.14-1.87-2a4.75,4.75,0,0,0-.82-1.32,15.26,15.26,0,0,1-3.79-5.56c-.19-.43-.4-.85-.58-1.21l-4.36.48c-.56,1-1.09,2.11-1.7,3.14a5.18,5.18,0,0,1-3.49,2.43,1,1,0,0,1-1.31-.56c-.19-.41-.32-.92-1-1.12.14.78.29,1.46.39,2.15.4,2.67-.46,4.13-3,5-2.77.92-5.56,1.77-8.34,2.67-.4.12-.79.28-1.19.43a6.3,6.3,0,0,0,3.51.19,22.48,22.48,0,0,0,7.28-2.79l1.06-.58a6.37,6.37,0,0,1-2.92,2.51,18.88,18.88,0,0,1-5.45,1.65,16.61,16.61,0,0,1-10.61-1.33,20.79,20.79,0,0,1-7.81-7.43,6.62,6.62,0,0,1-.83-2.08,12.1,12.1,0,0,1,1.09-8.63,7.72,7.72,0,0,1,6-4.3,14.38,14.38,0,0,1,3.82-.07,10.14,10.14,0,0,1,6.39,3.22,4.32,4.32,0,0,1,1.3,3.76,6.81,6.81,0,0,1-1.93,3.71,3,3,0,0,1-3.72.49c.29-.25.55-.47.82-.67.5-.36,1-.72,1.52-1.06a1.52,1.52,0,0,0,.63-2.08,15.9,15.9,0,0,0-1.79-3.07c-1.58-1.95-3.19-2.15-5.39-.9a2,2,0,0,0-1.32,2.07,8.51,8.51,0,0,1-.37,2.08c-.19.95-.43,1.9-.6,2.85a4.52,4.52,0,0,0,.94,3.63,7.49,7.49,0,0,0,6.17,3.13c3.47,0,5.89-2,7.66-4.76a7.68,7.68,0,0,0,.71-7.13,40.47,40.47,0,0,0-1.92-4.37c-1.6-3.07-3.28-6.08-4.92-9.12-.18-.32-.31-.67-.46-1l.22-.14c.67.81,1.38,1.6,2,2.44a51.93,51.93,0,0,1,5,7.53,13.32,13.32,0,0,1-.14,13.1c-.13.24-.23.5-.35.75a6.82,6.82,0,0,0,3.34-7.24,30,30,0,0,0-10-18.26,2.13,2.13,0,0,0-1.14-.59,2.17,2.17,0,0,1-1.72-1,10.18,10.18,0,0,0-.73-.86c-1,1.14-1.7,2.52-2.92,3.79.11-1.07.22-1.82.27-2.56.11-1.73-.51-2.44-2.32-2.74-.4-.31-.79-.65-1.22-.92a11.74,11.74,0,0,1-5.2-6.62,33.29,33.29,0,0,1-.67-3.56c-1.19,4.15,1.55,9.59,7.13,11.06l.28,1c-.39,0-.56,0-.73-.09a10.3,10.3,0,0,1-7.68-9.7c-.06-2,.08-4,.15-6,0-1.18.12-2.37.18-3.52-.15-.05-.19-.08-.23-.07s-.33.09-.49.15a7.14,7.14,0,0,1-6.63-.55,32.4,32.4,0,0,1-3.26-2.5c-.17-.13-.3-.32-.47-.46a7.86,7.86,0,0,0-.67-.46c1.36,3.91,4.25,6.22,6.94,8.75l-.36-1.28a2.6,2.6,0,0,1,.5.2,8.43,8.43,0,0,1,2.64,10.12,23.19,23.19,0,0,1-1.79,3.09c-1.44,2.19-2.94,4.33-4.39,6.5a14.06,14.06,0,0,0-2.22,4.65,5.11,5.11,0,0,0,3.55,6.38c.5.16,1,.23,1.55.35l1.13.25c-2.16,1.46-3.86.36-5.57-.63a1.67,1.67,0,0,1-2.09.33A10.1,10.1,0,0,1,430,280.86a10.65,10.65,0,0,0,1-3.2,9.64,9.64,0,0,0-6.52,6.38c-.54-.13-.68-.31-.47-.7,1.16-2,2.32-4.08,4.33-5.47a24.7,24.7,0,0,0,2.61-2c2.34-2.12,2.36-3.85-.08-5.83-2.19-1.79-4.51-3.43-6.79-5.11-.16-.12-.42-.09-.63-.13l-.16.23,1.55,1.74c2.45,2.72,2.33,4.62-.46,7-1.21,1-2.49,2-3.72,3a8.62,8.62,0,0,0-1.14,1.12,1.29,1.29,0,0,0-.24,1.36,2.67,2.67,0,0,0,4.17,1.18c.32-.24.57-.57.89-.8a3.24,3.24,0,0,1,.76-.33,9.31,9.31,0,0,1-2.19,2.35,3.26,3.26,0,0,1-4.2-.59,5.55,5.55,0,0,1,.35-5.84,17.33,17.33,0,0,0,1.7-2.37,2.23,2.23,0,0,0-.55-3.2,27.71,27.71,0,0,0-3.2-2.12c-2.34-1.43-4.72-2.8-7.05-4.24-1.24-.77-2.41-1.66-3.62-2.48a8.34,8.34,0,0,0-.88-.42,23.36,23.36,0,0,1-1.61,9,22.93,22.93,0,0,1-5,7.47c-2.43,2.47-5.72,4.89-7.22,5.27,7.07-5.29,12.1-11.65,12.35-20.8a4.39,4.39,0,0,0-.42,1.33,21.69,21.69,0,0,1-1.81,5.67,35.18,35.18,0,0,1-5.73,8.45c-3.77,4.07-8.37,6.13-14,5.42a1.9,1.9,0,0,0-2.31,1.91,24,24,0,0,0,.47,4.47c.7,3.4-.18,6.16-3.13,8.08-1.81,1.18-3.71,2.2-5.53,3.28-.55-.48-.72-.82-.13-1.15.81-.46,1.61-.93,2.43-1.36a10.53,10.53,0,0,0,4.85-5.44,6.45,6.45,0,0,0,.22-.75l-.26-.13c-.68.85-1.45,1.66-2,2.57a12.11,12.11,0,0,1-6.37,5.17,36.56,36.56,0,0,1-4.5,1.13c-2.41.5-4.6,1.4-6,3.52a20.71,20.71,0,0,0-1.8,3.22c-1.48,3.33-2.88,6.69-5.93,8.84a7.35,7.35,0,0,1,.63,1.91,46.79,46.79,0,0,1-.29,9.68,4.48,4.48,0,0,1-3.43,3.83,19.79,19.79,0,0,0-9.73,5.66,3.27,3.27,0,0,1-3.63.91l-1.26-.39a5.69,5.69,0,0,0-3-.15,6.62,6.62,0,0,0,.51,3.28,6.66,6.66,0,0,1,.72,3.34,4,4,0,0,1-1.94,3.27c.26-2,.5-3.8.79-5.91l-9.21,6.85a.87.87,0,0,0-.26,1.07c.25.89.85,1.33,2,1.36.93,0,1.86,0,2.79-.06-2.6,1.07-2.68,1.16-2.29,3.09a8.79,8.79,0,0,1,1.12-.72,12.82,12.82,0,0,1,2.31-1c1.08-.26,1.8.26,2.14,1.42l-1.2-.15c-2.27-.26-3.35,1-2.81,3.19a2.84,2.84,0,0,0,.13.38q1.77,4.71,3.55,9.43a5.09,5.09,0,0,0,.42.71,6.59,6.59,0,0,0,0-1.89,21.61,21.61,0,0,0-2-6.18c-.44-.94-.77-1.93-1.14-2.9l.27-.13c.72,1.21,1.45,2.41,2.15,3.63a10.84,10.84,0,0,1,1.64,4.74c.12,2.38.15,4.77.14,7.15a30.79,30.79,0,0,1-2.95,13.51c-.38.79-.68,1.61-1.05,2.48,1.26.7,2.42,1.33,3.56,2,2.24,1.33,2.71,2.66,1.87,5.12q-1.59,4.65-3.16,9.3c-.15.43-.25.87-.36,1.31l.2.07c.76-1.23,1.52-2.46,2.27-3.69-.5,3.89-1.59,7.44-5,9.9,1.16.76,2.21,1.48,3.29,2.16a12,12,0,0,1,4.71,5.6,19.32,19.32,0,0,1,1.2,11.95,50.32,50.32,0,0,1-3.18,9.28,21.36,21.36,0,0,0-1,2.87,4.56,4.56,0,0,0,.24,3.64l2.3-5.64.25.08L333,447.1l.24.1,1.32-1.87c-.32,1.48-.64,2.68-.84,3.89a4.12,4.12,0,0,0,1.76,4.2,4.45,4.45,0,0,0,1.06-2.9,24.31,24.31,0,0,0-.47-2.9,4.16,4.16,0,0,1,1,1.65,7,7,0,0,0,3.46,4.18,25.53,25.53,0,0,1,3.28,2.27,15.1,15.1,0,0,1,5.72,15c-.56,3.65-2.64,6.08-6,6.81a23.19,23.19,0,0,1-3.83.28c-.6,0-1.2,0-1.91,0,0,2.52,0,4.91,0,7.29a21.14,21.14,0,0,0,.49,4.21,4.64,4.64,0,0,0,7.08,2.53c-1.12-.37-2.28-.68-3.38-1.13a5.24,5.24,0,0,1-3-2.83c-1.05-2.58-.25-5,.79-7.33a10.39,10.39,0,0,1,.09,2.08c0,1.11-.08,2.22,0,3.32a4.88,4.88,0,0,0,1.6,3.53,6.81,6.81,0,0,0,9.07-.35,23.68,23.68,0,0,0,2.31-3.54,14.54,14.54,0,0,0,.68-1.43,8.56,8.56,0,0,1,.08.93,10.69,10.69,0,0,1-3.11,7.42,44.46,44.46,0,0,1-4.91,4.06,7.29,7.29,0,0,1-3.11,1.36c-6.81,1-12.51-1.08-16.84-6.5a11,11,0,0,1-2.41-8.07,8.85,8.85,0,0,0,0-.94c-.49.51-.8.81-1.1,1.13-.92.95-1.81,1.94-2.77,2.86a8.17,8.17,0,0,1-4.32,2.17,17.9,17.9,0,0,1-7.5-.38c-3.71-.9-5.71-3.14-6.11-6.92-.13-1.27-.08-2.55-.12-4.09-.51.46-.84.73-1.14,1-3.07,3-6.12,6-9.19,9-1.93,1.89-3.88,3.76-5.82,5.64a5.87,5.87,0,0,1,.49-.93,89.49,89.49,0,0,1,9.17-10.48c.58-.54,1.15-1.1,1.7-1.67a3,3,0,0,0,.32-.58.78.78,0,0,0-.69.14c-3.28,3.1-6.56,6.19-9.83,9.31a5.52,5.52,0,0,0-1.11,1.48,3.82,3.82,0,0,0-.51,3.11c-.41.46-.1.8.18,1.15.76,1,1.52,2,2.27,2.95a6.24,6.24,0,0,1,.41.78c-3.29,0-5.45-1.81-6-4.83a7.42,7.42,0,0,1,1.13-6,130.05,130.05,0,0,0,8.19-13.2,4.12,4.12,0,0,0-.61-5.47,24.47,24.47,0,0,0-3.66-3.25,22.23,22.23,0,0,0-3.81-1.82,6.3,6.3,0,0,0-1.32-.26c3.81,5,6.54,10,4.51,16.38l-.3.06c-.28-3.32-.56-6.64-.84-10l-.81.1c.29,1.45.63,2.82.81,4.21.61,4.76-.76,8.76-4.68,11.71a17.52,17.52,0,0,1-7.16,3c-2.27.47-3.69-.25-4.46-2.45a11.67,11.67,0,0,1-.07-8.07,9.54,9.54,0,0,1,1.64-2.85c1.39-1.64,3.22-1.24,4.1.87l-1.72-.66a6.14,6.14,0,0,0-.44,5c.29,1,.78,2,2,2.05s1.84-.76,2.34-1.68a6.77,6.77,0,0,0,.53-5.16,12.47,12.47,0,0,0-6.65-7.88,9.73,9.73,0,0,0-1.08-.45,2.81,2.81,0,0,0-.23.57,8.36,8.36,0,0,1-3.23,5,19.72,19.72,0,0,1-9.68,4.08c-5.88.78-11.12-.93-15.91-4.24a6.41,6.41,0,0,1-2.85-5.16,14.67,14.67,0,0,1,.27-3.56,6.71,6.71,0,0,1,6-5.64l2.93-.4L244,453.86a14.2,14.2,0,0,1-4.48,5.17,7.58,7.58,0,0,1-6.42.76c.7-.11,1.41-.09,2.11-.15a7.26,7.26,0,0,0,6.38-4.5,4.18,4.18,0,0,0,.17-.89,12.55,12.55,0,0,1-4.72,3.58,5.71,5.71,0,0,1-5.49-.36,7.19,7.19,0,0,1,1.67,0c.89,0,1.77.09,2.66.09.16,0,.33-.21.5-.32-.13-.19-.25-.53-.4-.55a6.55,6.55,0,0,0-1.82-.06,3.94,3.94,0,0,1-3-.48c-1.4-1-2.68-2.14-4-3.23a.41.41,0,0,1-.07-.11c-1.15-2.1-2.32-4.19-2.3-6.7,0-.82-.08-1.64-.14-2.61l-1.29.71a11.68,11.68,0,0,1-4.63,1.53,12.14,12.14,0,0,1-7.76-2.21,6.6,6.6,0,0,1-3.36-7.08,1.59,1.59,0,0,0-.37-1.32c-3.52-4.7-3.7-9.6-.84-14.66a27,27,0,0,1,4.37-6.31c-.94-1.47-1.89-2.81-2.67-4.24a3.83,3.83,0,0,0-2.55-1.91c-2-.59-4.06-1.25-6.06-2a20.54,20.54,0,0,1-6.67-3.78,2.44,2.44,0,0,0-.56-.28,4,4,0,0,0-1.4-2,2.78,2.78,0,0,0,1.42,2c.29.43.55.88.88,1.28.66.84,1.36,1.65,2,2.47l-.17.22a8.22,8.22,0,0,1-1.19-.48,9.06,9.06,0,0,1-4.86-7.33,41,41,0,0,1,1-11.62A4.48,4.48,0,0,1,193,383a21.76,21.76,0,0,1,2.32-.54,22,22,0,0,0,2.3-.56,13.52,13.52,0,0,1,4.93-.93c2.43.11,4.86.34,7.29.49.41,0,1,.07,1.22-.16a5.35,5.35,0,0,0,1.56-3.33l-2.65.23c-2.43.2-4.85.42-7.28.59a9.36,9.36,0,0,1-5.32-1.34c-2.55-1.43-5.16-2.74-7.74-4.11l-1.12-.61.07-.21,3.45.21a11.89,11.89,0,0,1,1.92-11,5.32,5.32,0,0,0,.82-1.94c.28-1.16.43-2.35.63-3.53a1.85,1.85,0,0,0-2.89-1.94,7.29,7.29,0,0,0-3.12,3.17c-.78,1.64-1.43,3.34-2.18,5a19.59,19.59,0,0,1-1.61,3,5.53,5.53,0,0,1-5,2.3,10.74,10.74,0,0,1-10.07-7.53,9.63,9.63,0,0,1,1-8.9c1.08-1.56,2.18-3.12,3.16-4.75s2-3,3.94-3.54a1.32,1.32,0,0,0,.36-.24c.05-1,.13-2,.14-3a3.5,3.5,0,0,1,2.2-3.34l2.72-1.3a3.41,3.41,0,0,0-.54-.31,6.39,6.39,0,0,0-7.31,2.74,40.55,40.55,0,0,0-2.13,3.82c-.79,1.48-1.5,3-2.34,4.47a3.84,3.84,0,0,1-3.91,2,5.52,5.52,0,0,1-4.4-2.9,4.1,4.1,0,0,1,1.23.37c.85.37,1.7.75,2.56,1.1a2.47,2.47,0,0,0,2.8-.64c1.62-1.56,2.42-3.64,3.65-5.42-.6-.48-.79-.14-.94.2a13.23,13.23,0,0,1-3.4,4c-1.37,1.26-2,1.31-3.5.21a11.75,11.75,0,0,1-2.13-2,22,22,0,0,1-2-3c-1-1.73-1.94-3.48-2.82-5.27a4.21,4.21,0,0,0-2.37-2.35c-.06,0-.1-.13-.19-.23a4.79,4.79,0,0,1,0-.49,2.4,2.4,0,0,1,1.7-2c.95-.17,1.38.77,1.81,1.5a3.87,3.87,0,0,1,.21.34c.66,1.3,1.26,2.64,2,3.88a10.81,10.81,0,0,0,1.91,2.34,3,3,0,0,0,2.77.53c.95-.19,1-1,1.3-1.69,1.21-2.75,2.3-5.57,3.63-8.26,1.65-3.32,3.93-4.36,7.54-3.63,2.74.55,5.44,1.22,8.16,1.83a7.09,7.09,0,0,0,1,.08,19.66,19.66,0,0,1-8.09-10.61l1-.53a3,3,0,0,1-1.87-2.93,15.42,15.42,0,0,1,.55-3,1.76,1.76,0,0,1,1.87-1.38c.67,0,1.34.06,2,0a14.5,14.5,0,0,0,1.72-.36l-7.85-7.87,6.91-6.73c-.46-.12-.7-.22-.94-.25a7.65,7.65,0,0,0-6,1.73,36.06,36.06,0,0,0-2.67,2.58c-.37.38-.71.67-1.34.21,0-.41,0-.89,0-1.37-.08-2.17-.11-4.34-.25-6.51a8.38,8.38,0,0,0-.61-2.14.93.93,0,0,0-1.28-.62c-1,.35-2.17.59-2.74,1.75l-1.22-.82c-.07-.78-.08-1.49-.2-2.18-.18-1-.49-2.07-.66-3.12a14.5,14.5,0,0,1,.25-6.71,2.65,2.65,0,0,1,1.24-1.62,10.2,10.2,0,0,1,14.39,4c.16.29.35.56.62,1,.31-.45.71-.76.71-1.07,0-1.62-.05-3.24-.09-4.88A7.46,7.46,0,0,0,183,273a17.44,17.44,0,0,1-7.54-1.88c-1.79-.86-3.52-1.87-5.28-2.8-2.86-1.5-5.68-3.09-8.6-4.46a23.47,23.47,0,0,0-5.26-1.78,8.7,8.7,0,0,0-9.91,5.92,6.75,6.75,0,0,0,5,8.88c.26.06.52.16.92.29a4.69,4.69,0,0,1-5.06-1.4,8.84,8.84,0,0,1-2-8.06,7.64,7.64,0,0,1,3.14-4.6,18.46,18.46,0,0,1,6.68-2.82,9.77,9.77,0,0,1,6.47.63,52.3,52.3,0,0,0,5.69,2.21c2,.66,4,1.15,6,1.68a2.56,2.56,0,0,0,.78,0l.09-.32c-.41-.22-.82-.42-1.21-.66a43.18,43.18,0,0,1-4.13-2.64,10,10,0,0,1-3.56-5.47c-.74-2.8.54-5,3.36-5.59a14.08,14.08,0,0,1,7,.28,27.49,27.49,0,0,0,10.52.89c.64-.06,1.27-.22,1.91-.34a9.38,9.38,0,0,0-1.73-.33,22.17,22.17,0,0,1-7.6-2.67,168.17,168.17,0,0,0-15.76-7,7.52,7.52,0,0,0-6.15.33,2.81,2.81,0,0,0-1.7,3.49,18.69,18.69,0,0,0,.84,2.38c.3.8.63,1.6.95,2.4a5.13,5.13,0,0,1-2.62-3.08,10.81,10.81,0,0,1-.52-4.59,2.9,2.9,0,0,1,1.9-2.65,7.3,7.3,0,0,1,2.31-.51,62.29,62.29,0,0,1,9.94.48,41.6,41.6,0,0,0,5.69.24,2.78,2.78,0,0,0,2.74-2.3,18.12,18.12,0,0,0,.46-3.28c.12-1.85.14-3.71.19-5.57,0-.29,0-.57,0-1-.74.47-1.32.87-1.93,1.2a36.47,36.47,0,0,1-4.47,2.32c-3.59,1.31-6.83.39-9.59-2.11a5.5,5.5,0,0,1-.89-7.35,3.73,3.73,0,0,1,4.15-1.69,8.08,8.08,0,0,1,5,3.5,5.53,5.53,0,0,1,.41.89,16.61,16.61,0,0,1-1.76-1.27,19.64,19.64,0,0,0-3.27-2,3.14,3.14,0,0,0-4.22,1.91,4.22,4.22,0,0,0-.15,2.74,5.51,5.51,0,0,0,2.15,3.1c5,3.71,13.17,1.66,15.34-4.57a27.5,27.5,0,0,1,2.37-5,13.3,13.3,0,0,1,10.11-6.55c.39,0,.76-.16,1.16-.24a1.51,1.51,0,0,0-1-1.46,8.33,8.33,0,0,0-9.06,1.95c-.25.26-.53.52-.92.9-.06-.55-.13-.89-.14-1.23a4.79,4.79,0,0,1,5-5.32c.8,0,1.6.06,2.39.1l2.07.12a10.9,10.9,0,0,1-.43-1.57,4.33,4.33,0,0,0-1.7-2.87,74.3,74.3,0,0,1-8.81-8.84,6,6,0,0,0-1.17-1.07,3.77,3.77,0,0,0-3.15-.67,5.68,5.68,0,0,0-4.32,5.49,11.63,11.63,0,0,0,0,1.32c.3,2.86.63,5.72.94,8.58.05.45.07.9.14,1.65a8.53,8.53,0,0,1-.59-.63c-1.45-2.28-3-4.5-4.3-6.86a22.93,22.93,0,0,1-2.72-9.64,9.78,9.78,0,0,1,4.1-8.88,12.43,12.43,0,0,1,4.09-2.14c3.39-1,6.81-1.18,9.87.85,2.27,1.51,4.28,3.41,6.41,5.14.22.18.43.39.77.7a20.57,20.57,0,0,1,3.07-6.75,8.33,8.33,0,0,0,1.63-3.82c.07-.87.49-1.7.64-2.57.2-1.14-.15-1.65-1.27-2a9.25,9.25,0,0,0-2.08-.36,1.49,1.49,0,0,1-1.42-1,10.64,10.64,0,0,1-1.25-4.44,14.35,14.35,0,0,1,.9-5.34c.12-.35.21-.72.31-1.09l-.2-.06-1.1,1.35a6.08,6.08,0,0,1,2.33-5,12,12,0,0,1,5.67-2.43c1.15-.21,2.32-.34,3.41-.49-.74-1.36-1.54-2.63-2.13-4a27.43,27.43,0,0,1-1.18-3.8c-.83-3.08-1.62-6.18-4.31-8.61l1.37.19a9.66,9.66,0,0,0-3.08-2.6,4.68,4.68,0,0,0-3-.48A3.73,3.73,0,0,0,184.3,140c.35.62.76,1.19,1.13,1.8.17.28.29.59.49,1a11.31,11.31,0,0,1-1.41.3,5.85,5.85,0,0,1-6-4.55,9,9,0,0,1,4.33-10.11,10.4,10.4,0,0,1,7.08-1,17.29,17.29,0,0,1,9.85,5.89l.95,1.06.18-.11c-.8-3.46-1.59-6.93-2.4-10.42,1.21,0,1.85.74,2.57,1.37.92-2.19,1.79-4.31,2.71-6.41.39-.89.91-1.72,1.35-2.58a3.54,3.54,0,0,1,2.57-1.88c1.21-.27,2.39-.68,3.58-1,.23-.06.47-.08.71-.12l.09.22-2.89,1.55.13.28,4.12-1.14.15.3-3.74,2.32a1.56,1.56,0,0,0,.94,0c2-.57,4.06-1.25,6.14-1.69a13.46,13.46,0,0,1,10.59,1.75,9.3,9.3,0,0,1,4.28,9.12,4.6,4.6,0,0,1-2.87,4,10.42,10.42,0,0,1-6.55.37,4.61,4.61,0,0,1,1.09-.44,25.87,25.87,0,0,0,3.37-1.19,2.87,2.87,0,0,0,1.39-4,5.59,5.59,0,0,0-1.21-1.72,12.34,12.34,0,0,0-5.87-3.2,4.24,4.24,0,0,0-2.21.07,10.69,10.69,0,0,0-6.55,6c-1.31,3.08-.54,7.76,4.68,8.58,2.45.39,4.85-.11,7.26-.44.11,0,.19-.23.38-.47-1.44-.33-2.8.16-4.14-.22.33-.69.83-.52,1.23-.54,1.72-.06,3.45-.06,5.18-.15a17.06,17.06,0,0,0,2.76-.34,13.46,13.46,0,0,0,7-4.62c1.28-1.44,1.92-2.93,1.26-4.83a9.64,9.64,0,0,1-.27-1.44c-.91-5-2-9.89-2.17-15a14.72,14.72,0,0,0-4.88-10.56,6.79,6.79,0,0,0-2.75-1.56,2.09,2.09,0,0,0-2.46.8,5,5,0,0,0-1.25,3c0,1.63.11,3.27.25,4.89a17.52,17.52,0,0,0,.55,2.87,2.19,2.19,0,0,0,2.33,1.94,2.91,2.91,0,0,1,2,1,19.49,19.49,0,0,1,6,16.38,3.5,3.5,0,0,1-1,2.25c0-.58,0-.93.07-1.28a14.66,14.66,0,0,0-.38-5.4,36,36,0,0,0-4.19-9.57,2.52,2.52,0,0,0-1-1c-.89-.45-1.85-.77-2.67-1.11a1.34,1.34,0,0,0-.63,1.52c.09.7.17,1.4.21,2.11,0,.2-.16.41-.31.78a11.23,11.23,0,0,1-1.87-4.81c-.3-2.15-.62-4.29-.87-6.45-.37-3.25-.77-6.51-1-9.78s1.42-5.54,4.23-7.08a4.25,4.25,0,0,1,5.28.53A35.52,35.52,0,0,1,234,88.87c.68.75,1.24,1.61,1.89,2.4.14.17.41.23.63.35l.2-.24c-.23-.35-.45-.71-.71-1-1.47-1.94-3-3.87-4.43-5.81a6.4,6.4,0,0,1-.46-.87c.26,0,.37-.09.43,0a2.06,2.06,0,0,1,.4.33,39.71,39.71,0,0,1,6.51,9c1.14,2.29,2.39,4.54,3.64,6.79a8.75,8.75,0,0,0,1.32,1.81,1.4,1.4,0,0,0,2.38-.07A8.6,8.6,0,0,0,247,99.62c1.46-2.89,2.86-5.8,4.29-8.7,1.25-2.54,2.46-5.11,3.8-7.6a12.65,12.65,0,0,1,2.15-2.84,2.12,2.12,0,0,1,3.12-.16,11.82,11.82,0,0,1,2,2.09c2.11,2.73,4.1,5.56,6.28,8.24a69,69,0,0,0,4.91,5.21,7.83,7.83,0,0,0,2.08,1.42,3.52,3.52,0,0,0,4.2-.51,25.21,25.21,0,0,0,2.08-2.4c.4-.47.67-1.15,1.17-1.41a4.17,4.17,0,0,0,1.66-2.12,27.88,27.88,0,0,1,1.64-2.57c.18-.29.4-.55.72-1l-2.67-.5,4.32-7.36,2.53.71a11.87,11.87,0,0,0,5.65.28,6.47,6.47,0,0,0,5.6-6.31c.08-1,.1-1.92.15-3,.83-.13,1.6-.31,2.39-.37,1-.06,1.25.22,1.38,1.2a7.15,7.15,0,0,1,.07,1.46c-.27,3.56,2.87,6.52,6.07,6.93a5.06,5.06,0,0,0,2.08-.23,1.4,1.4,0,0,0,.63-2.27,5,5,0,0,0-1.34-1c-.38-.22-.85-.26-1.25-.45a2.7,2.7,0,0,1-1.67-3.13,12.72,12.72,0,0,1,.56-1.81c3.58,0,5.57,1.3,6.78,4.43A4.94,4.94,0,0,0,321,78.63a10.45,10.45,0,0,0,7.61.87,19.55,19.55,0,0,1,6.46-.5c2.43.15,4.86.25,7.29.4a11.58,11.58,0,0,0,5.67-1.11c1.48-.67,3-1.16,4.64-1.76l.53,2.17c.32.07.57.14.83.17,2.49.28,3-.13,3.14-2.63.07-1.18.13-2.35.22-3.78.56.47,1,.78,1.34,1.13.79.78,1.53,1.61,2.35,2.35a13.78,13.78,0,0,0,2.4,1.86,5.25,5.25,0,0,0,5.13.14c-.38-.41-.67-.73-1-1q-3-3-6-6c-.5-.49-.77-1-.33-1.57l22.22-1.67-.24-1.47c.56.3,1,.55,1.48.78s.86.42,1.3.63l.11-.29c-5.44-7.33-13-9.59-21.93-9a13.07,13.07,0,0,1,5.35-.67,40.24,40.24,0,0,1,7.55,1.43c.79.22,1.59.4,2.39.59a12.49,12.49,0,0,0-5.84-3.58A20.16,20.16,0,0,0,363,56.2c-.82.2-1.63.42-2.45.63a10.62,10.62,0,0,1,5.62-2.17,28.71,28.71,0,0,1,8.32.6,11.88,11.88,0,0,1,6.73,3.49c1.44,1.54,2.7,3.27,4,4.93.24.3.46.62.7.93a5.24,5.24,0,0,0-.28-1.78,29.34,29.34,0,0,1-1.14-8.39,10.06,10.06,0,0,1,6.15-9.72,34.74,34.74,0,0,1,6.77-2.33,14.63,14.63,0,0,1,7.23.06c6.83,1.81,11.27,6.21,13.7,12.76l.54,1.5,1.42-.66a16.09,16.09,0,0,1,8.24-1.67,11.53,11.53,0,0,1,8.21,4.93,6.79,6.79,0,0,1-1.21-.67,39.64,39.64,0,0,0-3.4-2.08,8,8,0,0,0-6.27-.68c.07.11.11.21.18.24.45.17.92.3,1.37.48,2.71,1.06,5.54,1.84,7.83,3.81a4.05,4.05,0,0,0,3.77.75,23.46,23.46,0,0,1,2.48-.45,20.37,20.37,0,0,1,8.37,1c2.28.7,4.59,1.31,6.9,1.91a8.79,8.79,0,0,0,4,.22,1.21,1.21,0,0,0,1.14-1.22,12.1,12.1,0,0,1,2.37-6.11,4,4,0,0,0,.63-1.56c.36-2.09.61-4.21,1-6.29a10.26,10.26,0,0,1,1-2.87,4,4,0,0,1,3.77-2.3c3.56.07,6.74,1.11,9,4,1.26,1.59,2.37,3.3,3.58,5l-1,.69a2.06,2.06,0,0,0,.28.33,13.17,13.17,0,0,1,5.14,6.74,22.94,22.94,0,0,0,4.18,6.59l.42-.57a25,25,0,0,1,3.39,5,3.73,3.73,0,0,0,1.17,1.39A14.74,14.74,0,0,0,501.93,75a21.27,21.27,0,0,0,2.47.36c.05-.4.08-.62.1-.84.2-2.06,0-2.32-2.08-2.65a3,3,0,0,1-2.37-2.22,13.53,13.53,0,0,1-.16-4.62,1.36,1.36,0,0,1,.89-1.2c.77-.34,1.54-.68,2.3-1,1.92-.9,2-1.1.88-3a1.9,1.9,0,0,1-.13-2.19,4.24,4.24,0,0,0,.54-3.08c-.52-2.28-2.16-3.37-5-3.31a1.69,1.69,0,0,0-1.67,1.09c-.34.82-.66,1.65-1.06,2.44-.16.32-.46.74-.74.79-.57.09-.87-.42-.94-.92a17.41,17.41,0,0,1-.35-3.28,2.41,2.41,0,0,1,2.69-2.48,35.32,35.32,0,0,1,10.45,1.69A10.41,10.41,0,0,1,510.39,52a4.46,4.46,0,0,1,1.42,5.69,10.35,10.35,0,0,1-2.23,3A16.24,16.24,0,0,0,507,63.86a7.12,7.12,0,0,0,1.56,9,9.62,9.62,0,0,0,8,2.11,7.6,7.6,0,0,0,3.78-1.82,6.88,6.88,0,0,1,2.13-1.56c-.12,2-.63,3.88-.5,5.81a2.75,2.75,0,0,0,.78-.73c.51-.66,1-1.37,1.54-2,1.56-1.75,2.89-2.08,5-1,3.19,1.66,6.15,1.17,9-.73l1.07-.72c2.45,2.9,4.23,3.92,7.79,4.48.61.09,1.23.15,1.83.28,2.31.48,4.44,1.32,5.83,3.36A4.47,4.47,0,0,0,557,81.9c.25-.63-.23-1.61.85-1.7,2.66,2.17,4,5.29,6.09,8.19,1.31-4.54-.7-7.52-3.74-10.16a6.84,6.84,0,0,1,4.27,2.42c1,1.29,1.84,2.75,2.78,4.18.2-.26.45-.56.67-.88a56.73,56.73,0,0,1,5.59-7.42,7,7,0,0,0,1.16-1.77,2.83,2.83,0,0,0-.69-3.82,8.17,8.17,0,0,0-9.51-.66,3.82,3.82,0,0,0-.77,5.31,19.63,19.63,0,0,0,2.71,2.34,1.43,1.43,0,0,0,.88.21,5.48,5.48,0,0,0,4.51-2.39,3.13,3.13,0,0,0,.56-2c0-.72-.26-1.15-1.05-1.25-1.36-.18-2.71-.44-4.06-.66-.36-.06-.73-.08-1.25-.14.27.91.49,1.62.71,2.33.46,1.47.46,1.47.15,2.28l-1.8-5.22c2,0,3.75,0,5.5.16a3,3,0,0,1,2.52,4.43,6.71,6.71,0,0,1-6.5,3.48A6.45,6.45,0,0,1,561.51,74a4.24,4.24,0,0,1,3.13-5.22c1.54-.43,3.09-.83,4.65-1.13,2.34-.46,4.72-1,7.1-.48,1.72.4,3.38,1,5.06,1.59l1.65.55-1.2-2.72c1.25.68,2.3,1.44,2.39,3a9.32,9.32,0,0,0,.32,1.42,16.63,16.63,0,0,1,.49,5.66c-.1.71-.29,1.41-.44,2.17.13-.06.19-.07.21-.1a1.87,1.87,0,0,0,.26-.3,7.75,7.75,0,0,0,.54-8.3l-.59-1.2a3.42,3.42,0,0,1,2.53,3,13.66,13.66,0,0,1,0,3.44,12.77,12.77,0,0,1-3.93,7.22c-.32.32-.63.66-1.14,1.19.87-.07,1.43-.14,2-.15a19.25,19.25,0,0,1,2.52,0,4.19,4.19,0,0,1,4,4.48,9.94,9.94,0,0,1-1.38,4.8c-1.31,2.41-2.76,4.75-4.07,7.16a27.8,27.8,0,0,0-1.66,3.74,3,3,0,0,0,1.15,3.53c.59.47,1.24.85,1.87,1.27s1.42.89,2.09,1.4a7.45,7.45,0,0,1,2.84,4.36c.06.24.11.48.21.87.47-.43.83-.74,1.17-1.08l7.7-7.52c.45-.43.9-.85,1.39-1.24,1.58-1.28,2.46-1.3,4,0a18.32,18.32,0,0,1,2.29,2.2,7.76,7.76,0,0,1,1.37,2.25,4.23,4.23,0,0,1,.21,2.9c-.41-1.06-.71-2-1.11-2.86a7.44,7.44,0,0,0-3.48-3.71c-1.26-.63-1.51-.58-2.65.67a15.79,15.79,0,0,1,2.09.41,5.88,5.88,0,0,1,1.75.88,1.79,1.79,0,0,1,.89,1.79l-3.1-1.62-.25.19a15.79,15.79,0,0,0,.95,2.84,41.13,41.13,0,0,0,3,4.53c1.42,1.87,3,3.64,4.46,5.46a9.81,9.81,0,0,1,2.13,4.78,15.46,15.46,0,0,0,3.39,7.55,14.82,14.82,0,0,1,2.23,4.19c1,2.62,2.22,5.2,3.4,7.77a7.18,7.18,0,0,0,3.15,3.32c.44.25.85.56,1.48,1l-2.08.05c1.33,1.3,2.89,1.46,4.15.31a25.26,25.26,0,0,0,2.41-2.65c2.22-2.7,4.41-5.43,6.62-8.14a5.07,5.07,0,0,1,.68-.61l.53.56-.82.92c2.53,1,2.89,1.56,2.75,4.32,0,.77-.09,1.53-.16,2.63,2.15-2.48,4.42-3.41,7.23-1.79,1.72,1,2.29,2.13,2.07,4.28l-2.06-3a11.65,11.65,0,0,0-1.32.56c-.2.12-.46.39-.46.58.07,1.83.24,3.65,1.73,5l7,6.3a1.72,1.72,0,0,0,.36.18c.1-.18.2-.32.28-.48a33.28,33.28,0,0,1,1.72-3.43,8.71,8.71,0,0,1,7.27-4.23,9.55,9.55,0,0,1,6.4,2.19c8.73,6.93,12.37,15.92,10.64,27a16.45,16.45,0,0,1-4.56,9.27,9.73,9.73,0,0,1-2.19,1.71,4.53,4.53,0,0,1-6.52-2,4.47,4.47,0,0,1-.56-1.48c-.18-2-.31-4-.39-6,0-.74.52-1.15,1.3-1.49-.07.56-.14,1-.17,1.43a31.86,31.86,0,0,0-.27,4.35,5.06,5.06,0,0,0,3.31,4.45,2.52,2.52,0,0,0,1.78.15c1.72-.71,3.19-1.78,3.61-3.77a24,24,0,0,0,.3-8.45,33.15,33.15,0,0,0-4.74-12.59c-.27-.43-.51-.88-.77-1.32l.24-.19c.67.73,1.39,1.42,2,2.19a21.08,21.08,0,0,1,3.82,8.54c.37,1.55.67,3.12,1,4.68l.27-.05c-.15-1.44-.21-2.91-.46-4.34a30,30,0,0,0-6.72-14c-1.7-2.09-4.5-1.77-5.94.51a5.35,5.35,0,0,0-.66,1.58c-.28,1.25-.48,2.52-.72,3.78-.54,2.87-1,5.75-1.64,8.6a9.69,9.69,0,0,1-2.59,4.87,2.59,2.59,0,0,0-1,2.1l.4.48a3.9,3.9,0,0,1,.4,4.91c-.47.8-1.08,1.51-1.61,2.28a5.77,5.77,0,0,0-.41.79c3,.14,6,.2,8.89.44,7.24.59,12.62,4,15.83,10.64a33.14,33.14,0,0,1,3.12,11.34c.27,2.69.43,5.39.85,8.06a49.48,49.48,0,0,0,3.82,11.84,6.39,6.39,0,0,0,1.23,1.87,3.05,3.05,0,0,0,5.11-1c.21-.53.26-1.12.42-1.67.21-.74.47-1.48.7-2.21L700,234a3,3,0,0,0-.24.58,4.13,4.13,0,0,1-3.18,3.19,3.43,3.43,0,0,1-3.69-1.8c-.19-.3-.39-.59-.57-.89a41.68,41.68,0,0,1-4.8-12c-.56-2.41-1-4.86-1.43-7.29a2.19,2.19,0,0,0-1.56-1.81,3,3,0,0,0,0,.48c.84,3.8,1.65,7.61,2.54,11.4A33.08,33.08,0,0,0,692,237.47a4.31,4.31,0,0,1,.26.6,16.79,16.79,0,0,0-2-.12,1.62,1.62,0,0,1-1.73-1.11c-1.22-2.5-2.51-5-3.79-7.46a7.67,7.67,0,0,0-.54-.77c-.14,1.27.49,2.25.86,3.31s.79,2.11,1.18,3.17l-.22.08c-1.05-2-2.11-4-3.25-6.22-.47.63-.82,1.13-1.2,1.61-1.54,2-3,2.44-5.69,1.57a9.34,9.34,0,0,0,1.15-.24,16.66,16.66,0,0,0,3.06-1.21c1.6-1,2-2.63,1.8-4.46a6.26,6.26,0,0,0-1,1.53,5.55,5.55,0,0,1-5.58,3.3l-1.6-.05c-.28,0-.56,0-.84,0l0,.21,1.24.67a10.06,10.06,0,0,0,.22,1.44c2.07,6.58,4.18,13.15,6.23,19.74a14.1,14.1,0,0,0,2.2,4.36c.36.48.67,1,1,1.52l-1.92.56a8.56,8.56,0,0,1,.82.52c1.59,1.47,3.19,2.93,4.75,4.42a5.11,5.11,0,0,0,6.79.45,9.73,9.73,0,0,0,2.88-3.6,15.33,15.33,0,0,0,1.35-6.71c0-.51,0-1,0-1.53a6,6,0,0,1,.51,2.23,15.07,15.07,0,0,1-.11,2.51c-.59,4.24-2.58,7.48-6.64,9.24a2.31,2.31,0,0,1-1.89.14,3.61,3.61,0,0,0-4.21,1.1,14.09,14.09,0,0,0-1.07,1.35,9.67,9.67,0,0,1-2.68,3.08.81.81,0,0,0-.25.3c-1,1.77-2,3.54-3,5.33.54.46,1.08.32,1.65-.23.24-.22.45-.7,1-.42L681,279c1.09.87,2.1,1.64,3.09,2.45.78.65,1.49,1.38,2.28,2a9.18,9.18,0,0,1,3.65,8,7.94,7.94,0,0,1-4.63,7.2,22.64,22.64,0,0,0-3.73,2.72,1.64,1.64,0,0,0-.41.81,4.19,4.19,0,0,0,1.28,4.35c.33.34.72.63,1.18,1-1.4,3.11-2.07,6.56-4.89,8.94l-.32-.87c-.43.41-.81.72-1.14,1.07-2.26,2.34-2.09,4.28.52,6.19.56.41,1.14.8,1.71,1.19l-.1.2-4.18-1.67c-.15.81-.33,1.48-.39,2.16a13.85,13.85,0,0,0,.8,5.22c1.07,3.47,2.17,6.92,3.16,10.41a16.08,16.08,0,0,1-.05,10.19,10,10,0,0,0-.35,1.55,7.48,7.48,0,0,0,.31,4.31,6.25,6.25,0,0,1-.33,5.51,9.5,9.5,0,0,1-1.75,2.48,26.75,26.75,0,0,1-4,3.11A32.07,32.07,0,0,1,662,371.65a25,25,0,0,1-8.58.47,4,4,0,0,1-2.25-.78,32.66,32.66,0,0,0,8.46-.11c3.25-.53,6.49-1.58,7.7-2.65a27.13,27.13,0,0,1-10.45,1.2,1.22,1.22,0,0,1,.47-.17c2.08-.4,4.18-.77,6.25-1.21a22,22,0,0,0,5.93-1.87,5.55,5.55,0,0,0,2.7-2.91,2.2,2.2,0,0,0-.49.14,25.68,25.68,0,0,1-10.07,3.91c-3,.6-6.08,1.18-9.11,1.82-.93.2-1.83.56-2.86.88l.67.85-.94.41c.17.2.23.32.33.38a34.3,34.3,0,0,0,6.44,3.43,14.89,14.89,0,0,1,4.53,2.46,5.31,5.31,0,0,1,1.59,2c-.86-.4-1.62-.92-2.42-1.36s-1.38-1.19-2.69-1.28a12.18,12.18,0,0,0,.83.92c1,.84,2,1.65,2.93,2.5a3.87,3.87,0,0,1,1.41,3.43,4,4,0,0,0,.49,2.29,12.3,12.3,0,0,1-2.15,13.47,10.86,10.86,0,0,1-5.16,2.79c.33-.65.54-1,.72-1.4-.69-.31-1.39-.58-2-.95s-.8-.75-.45-1.43a6.57,6.57,0,0,1,1.08-1.5c1.07-1.12,2.23-2.15,3.28-3.29a3.54,3.54,0,0,0,0-5c-.54-.55-1.06-1-1-1.89a.61.61,0,0,0-.22-.46,8,8,0,0,0-4.48-1.79c0,.53.07.88.09,1.23a36.88,36.88,0,0,1-.43,9.27c-1,5.38-3.78,9.88-7,14.14a7.86,7.86,0,0,0-1.62,3.14c-.48,2.29-1,4.58-1.44,7l2.38,1.48-2.51.36v.21l3,1c-.25.55-.44,1-.65,1.44a13.92,13.92,0,0,0-1.68,7.93,3.41,3.41,0,0,1-.73,2.63,8.5,8.5,0,0,1-4.09,3.25c-1.9.58-3.83,1.08-5.75,1.59-2.82.74-5.64,1.45-8.56,2.2,0-1-.65-.74-1.15-.68-3.61.43-7.21.89-10.82,1.3a2.51,2.51,0,0,0-2.42,1.5,1.72,1.72,0,0,1-.59.7,2.27,2.27,0,0,0-.77,2.6c.55,2.23,1.08,4.48,1.47,6.74a13,13,0,0,1-.69,7.82s-.12,0-.21.08c0-.15,0-.27-.07-.4s-.06-.24-.13-.5c-2.52,3.56-5.08,6.94-10,6.79-4.51-.13-8.21-1.69-10.26-6.1a6.55,6.55,0,0,0,1,3.43c.6,1,1.26,1.91,1.9,2.87l-.13.09-1.65-1.07a1.12,1.12,0,0,0,0,.36,2.27,2.27,0,0,0,.19.34A5.52,5.52,0,0,0,593,470c5.41.89,10-.6,13.51-4.93.14-.17.26-.35.41-.52a4.17,4.17,0,0,1,.38-.34,8.7,8.7,0,0,1-3.64,4.79c-3.54,2.43-7.45,2.77-11.63,1.82l.53,1.53a10,10,0,0,1,.48,5.1c-.58,3.17-2.57,5.38-5.07,7.19a3.28,3.28,0,0,1-1.63.44,7,7,0,0,0-4.51,2c-.63.63-1.22,1.29-1.78,2a32.55,32.55,0,0,1-10,8.11l-1.86.05c-4.13-1.42-5.61-4.84-6.47-8.74l-.25.07.11,4.32L559.85,491c-.13.55-.21,1-.32,1.38a2.86,2.86,0,0,1-2,2.17,9.88,9.88,0,0,1-3,.43,3.86,3.86,0,0,1-3.7-2.93,20.42,20.42,0,0,1-.5-2.05c-.18-.89-.33-1.79-.54-3l-1.07,1.52c-1.09,1.51-2.14,3.05-3.3,4.5a14.09,14.09,0,0,1-5.4,4.2ZM170.72,244.54c-3,.32-5,2.93-3,6.22l.06.11a14.88,14.88,0,0,0,8.73,6.51,8,8,0,0,0,1.84.16,1.21,1.21,0,0,0,1.22-.84,4.29,4.29,0,0,0,.15-3.59,11,11,0,0,0-6.12-6.11,3,3,0,0,0-3.52.43ZM552.09,471.18c.29.57.61,1.13.86,1.71a36.39,36.39,0,0,1,1.52,3.67,9.07,9.07,0,0,1-1.15,8,27,27,0,0,1-2.71,3.25c-.94,1-2,1.85-3,2.83a3.49,3.49,0,0,0,.51,5.59,2.68,2.68,0,0,0,2.72.59,5.2,5.2,0,0,0,3.22-3.77c.67-3.52,1.25-7.05,1.8-10.59a17.33,17.33,0,0,0,.39-5.66A7.58,7.58,0,0,0,552.09,471.18Zm-289.56-8.81c-.39.81-.72,1.38-1,2a9.17,9.17,0,0,1-5.41,5.17,19.83,19.83,0,0,1-9.1,1.42,15.93,15.93,0,0,1-7.21-2.06,8.33,8.33,0,0,1-4.18-5.57,23.2,23.2,0,0,1-.34-4.09,2.59,2.59,0,0,1,1.33-2.31c.56-.35,1.17-.62,1.73-1a13.12,13.12,0,0,0,1.1-.9l-.2-.3c-1,.4-2,.73-2.89,1.22a5.16,5.16,0,0,0-2.53,3.12,9.22,9.22,0,0,0-.33,4.33,8.39,8.39,0,0,0,3.6,5.52,16.68,16.68,0,0,0,8.13,3,20.43,20.43,0,0,0,14.06-3.21,9.91,9.91,0,0,0,3.45-4.29A2,2,0,0,0,262.53,462.37ZM441.68,276.05l-.24-.23a4.93,4.93,0,0,0-.54.34c-1.72,1.32-3.48,2.6-5.12,4a6.82,6.82,0,0,0-1.6,2.22,11.12,11.12,0,0,0-.71,6.37,7.9,7.9,0,0,0,1.73,4.11,3,3,0,0,0,1.69,1.11c-.29-.68-.5-1.15-.69-1.64a10.58,10.58,0,0,1,.42-9.22,30.38,30.38,0,0,1,2.38-3.5C439.87,278.41,440.79,277.24,441.68,276.05Zm208.84-124c-1.74.67-2.26,1.45-2.11,3a10,10,0,0,0,3.52,6.64c1.35,1.2,2.85,2.24,4.29,3.33.51.39,1,.75,1.79,1.28a6.41,6.41,0,0,0-2.15-3.86c-1.05-.89-2.18-1.66-3.26-2.5a20.85,20.85,0,0,1-2.06-1.67,3.79,3.79,0,0,1-.82-4.62C649.94,153.23,650.18,152.77,650.52,152.08Zm-244,107c3.77,2.53,7.27,4.88,10.78,7.22l.23-.23-5.6-7.6a4.69,4.69,0,0,0-.58.33,2.72,2.72,0,0,1-3.43.21,1.53,1.53,0,0,0-.6-.27C407.11,258.71,406.93,258.86,406.48,259.06Zm268.3,103.52c-.61.43-1.1.8-1.62,1.13a2.07,2.07,0,0,0-1,2.51,4.11,4.11,0,0,1-.59,3.4c-.38.71-.78,1.42-1.17,2.13a11.79,11.79,0,0,0,4.33-3.63A4.73,4.73,0,0,0,674.78,362.58ZM191.4,359.2c-2.18,3.35-2.35,7.83,3.11,9.69C193.47,365.66,192.47,362.54,191.4,359.2Zm242.91-84.73c1.29-2.38,1-4.1-.93-5.62s-4.05-3-6.13-4.43a24.14,24.14,0,0,0-2.78-1.41l-.18.27a15.53,15.53,0,0,0,1.34,1.35c1.33,1,2.71,2,4.05,3a10.77,10.77,0,0,1,3.78,4.36C433.78,272.77,434,273.58,434.31,274.47Zm228.46-74.78c8.06-.24,15.39,1.12,20.66,7.87C679.89,200.31,668.63,196.73,662.77,199.69ZM422.4,55.71c.2-3.8-4.65-9.93-8.24-10.52C416.91,48.7,419.59,52.14,422.4,55.71ZM327.24,368.92l-.38-.05-3.69,11.59.25.22a4.38,4.38,0,0,0,1.26-.77,10.91,10.91,0,0,0,1.54-2.44,16.42,16.42,0,0,0,1-6C327.26,370.63,327.24,369.77,327.24,368.92Zm-111.56,70c-.46-.13-.92-.25-1.37-.4-2-.67-4-1.26-5.88-2a4.6,4.6,0,0,1-3-3.77,1.72,1.72,0,0,0-1.19-1.51c.07,3,1.71,4.95,3.86,6.5A7.55,7.55,0,0,0,215.68,438.93ZM615,126.34l.23-.17-8-10.85-.23.17A19.86,19.86,0,0,0,615,126.34Zm-301,356a35.46,35.46,0,0,1-6.18,1.63,35.9,35.9,0,0,1-6.42-.54C305,486.74,311.78,485.4,314,482.31Zm244,10.76c.16,5.79,5,7.66,8.34,5.95C562.14,498.84,559.66,496.49,557.93,493.07ZM258.16,84l.32.13c.27-.33.54-.65.79-1,.91-1.2,1.77-2.44,2.71-3.6a2.4,2.4,0,0,1,3.3-.74l1.21.57c-.45-.71-.69-1.16-1-1.57-.89-1.19-1.74-1.29-2.91-.33a6.77,6.77,0,0,0-1.3,1.32c-1.06,1.52-2.06,3.08-3.07,4.64C258.12,83.6,258.17,83.84,258.16,84ZM241,468.09l-.06.31a25.21,25.21,0,0,0,7.29,1.88s0-.12,0-.13c-2.17-1.35-4.34-2.7-6.53-4-.09-.06-.33.11-.66.23l2.68,2.07-.12.19ZM524.9,497.87c2.05,2.41,5.94,3,8.1,1.26ZM679.59,316.44a12,12,0,0,0-2.15,2.08,17.9,17.9,0,0,1-2.62,3.77c-.27.27-.42.56,0,.93.74-.69,1.46-1.38,2.19-2.05.58-.54,1.21-1,1.76-1.59A3.35,3.35,0,0,0,679.59,316.44ZM664.18,371.3c1-.44,2-.85,3-1.31a10.32,10.32,0,0,0,3.56-2.72c.13-.16.12-.43.2-.72A30.27,30.27,0,0,0,664.18,371.3ZM512.45,436.53c-.14,2-.27,3.71-.41,5.64C514.33,440.22,514.47,438.41,512.45,436.53Zm150.6-273.95,6-4.18A6.37,6.37,0,0,0,663.05,162.58Zm20.56,15.75c0,3.56.49,7.3.94,8A11.64,11.64,0,0,0,683.61,178.33ZM350.39,322.74a7.26,7.26,0,0,1-4,4.82C349.19,328,350.91,325.88,350.39,322.74ZM248.64,468.34c1.57,1.38,3.65,1.8,4.59-.33ZM478.56,301.8l-2.6-1.75v1.75Z"/><path class="cls-3" d="M353,382.27l0-44.79h16.38a27.25,27.25,0,0,1,7.8,1.13,16,16,0,0,1,5.77,3.51c2.83,2.71,4.62,5.37,4.62,10.41v1.11a14.47,14.47,0,0,1-3,8.72,10.88,10.88,0,0,1-4.72,3.85l10.76,16.06H377.3L364,364.77v17.5Zm23.15-28.81a4.74,4.74,0,0,0-1.75-3.63c-1.17-.95-3.66-1.49-5.7-1.49H364v10.42H368v0h2.38A5.61,5.61,0,0,0,376.19,353.46Z"/><path class="cls-3" d="M393.39,382.27V337.48h10.95v44.79Z"/><path class="cls-3" d="M434.4,337.26a24.88,24.88,0,0,1,16.23,6.88l.71.69-7.87,7.8-.74-.68a13.6,13.6,0,0,0-9.59-3.72,13.94,13.94,0,0,0-9.56,3.43,10.58,10.58,0,0,0,0,16.54,14.07,14.07,0,0,0,9.56,3.4,13.48,13.48,0,0,0,9.61-3.71l.74-.69,7.87,7.8-.7.68a23.58,23.58,0,0,1-7.68,5.07A27.56,27.56,0,0,1,415.2,376a22.06,22.06,0,0,1,0-32.16,26,26,0,0,1,17.91-6.69h1.33Z"/><path class="cls-3" d="M455.25,337.48h10.92v16.95h15V337.48h10.92v44.79H481.15v-17h-15v17H455.25Z"/><path class="cls-3" d="M364.83,391.05a24.81,24.81,0,0,1,16.22,6.88l.71.69-7.87,7.8-.74-.68a13.57,13.57,0,0,0-9.59-3.72,13.9,13.9,0,0,0-9.55,3.43,10.58,10.58,0,0,0-4,8.27,10.47,10.47,0,0,0,4,8.26,14,14,0,0,0,9.56,3.41,13.47,13.47,0,0,0,9.62-3.72l.74-.68,7.86,7.79-.69.69a23.63,23.63,0,0,1-7.69,5.07,27.52,27.52,0,0,1-27.77-4.79,22,22,0,0,1,0-32.15,26,26,0,0,1,17.9-6.7h1.34Z"/><path class="cls-3" d="M404.43,390.9c6.86,0,12,2.26,16.88,6.7a22,22,0,0,1,0,32.15,24.83,24.83,0,0,1-33.76,0,22,22,0,0,1,0-32.15C392.45,393.16,397.57,390.9,404.43,390.9Zm0,11a11.66,11.66,0,0,0-8.63,3.42,10.64,10.64,0,0,0-3.94,8.27,10.53,10.53,0,0,0,3.93,8.27,11.77,11.77,0,0,0,8.64,3.41c3.68,0,5.95-1.12,8.61-3.41a10.61,10.61,0,0,0,0-16.53C410.39,403.06,408.13,401.94,404.43,401.94Z"/><path class="cls-3" d="M471.87,391.27l-21.58,44.79H448l-21.5-44.79h11.66l11,23.06,11-23.06Z"/><path class="cls-3" d="M460.59,436.06l21.6-44.74h2.59l21.63,44.74H494.53l-3.32-6.81H475.77l-3.32,6.81Zm20-15.73h5.77l-2.87-6.06Z"/><path class="cls-4" d="M277.37,538.33h-2.76l-1.81-5.13a4.76,4.76,0,0,0-1.61-2.23,4.14,4.14,0,0,0-2.6-.87h-4.71v8.23h-2.54V519.1h8.51a12.75,12.75,0,0,1,3.65.43,4.19,4.19,0,0,1,2.31,1.83,5.69,5.69,0,0,1,.89,3.13,4.91,4.91,0,0,1-1.16,3.33,5.46,5.46,0,0,1-3.16,1.75v0q2,.64,3.06,3.48Zm-13.49-10.51h5.68a6.15,6.15,0,0,0,3.45-.75,2.91,2.91,0,0,0,1.07-2.58c0-2.18-1.38-3.28-4.12-3.28h-6.08Z"/><path class="cls-4" d="M316.82,538.66a8.05,8.05,0,0,1-5-1.3,5.58,5.58,0,0,1-2.1-3.06,16.56,16.56,0,0,1-.44-4.08V519.1h2.54v11.08q0,3.8,1.28,5a6.43,6.43,0,0,0,7.45,0c.84-.8,1.27-2.46,1.27-5V519.1h2.56v11.12a11.87,11.87,0,0,1-.84,5.14,5.34,5.34,0,0,1-2.51,2.48A9.66,9.66,0,0,1,316.82,538.66Z"/><path class="cls-4" d="M369.11,538.33H357.22V519.1h2.54v16.95h9.35Z"/><path class="cls-4" d="M409,518.77a8.69,8.69,0,0,1,6.61,2.73,11.41,11.41,0,0,1,0,14.43,9.39,9.39,0,0,1-13.25,0,11.36,11.36,0,0,1,0-14.42A8.72,8.72,0,0,1,409,518.77Zm0,17.71a6.07,6.07,0,0,0,4.73-2.05,9.82,9.82,0,0,0,0-11.43,6,6,0,0,0-4.69-2,6.11,6.11,0,0,0-4.75,2,8.18,8.18,0,0,0-1.86,5.71,8.27,8.27,0,0,0,1.85,5.72A6,6,0,0,0,409,536.48Zm3.36-22.29-2.9,3.69h-1.94l1.74-3.69Z"/><path class="cls-4" d="M462,538.33h-11.9V519.1h2.55v16.95H462Z"/><path class="cls-4" d="M501.94,518.77a8.67,8.67,0,0,1,6.61,2.73,11.41,11.41,0,0,1,0,14.43,8.67,8.67,0,0,1-6.61,2.73,8.76,8.76,0,0,1-6.64-2.74,11.36,11.36,0,0,1,0-14.42A8.75,8.75,0,0,1,501.94,518.77Zm0,17.71a6.06,6.06,0,0,0,4.73-2.05,9.77,9.77,0,0,0,0-11.43,6,6,0,0,0-4.68-2,6.12,6.12,0,0,0-4.76,2,9.75,9.75,0,0,0,0,11.43A6,6,0,0,0,501.91,536.48Z"/><path class="cls-4" d="M551.45,538.66a8.85,8.85,0,0,1-6.72-2.72,11.47,11.47,0,0,1,0-14.46,8.76,8.76,0,0,1,6.68-2.71,9.59,9.59,0,0,1,5.77,1.67,6,6,0,0,1,2.58,4.48h-2.64a3.74,3.74,0,0,0-1.67-2.91,6.9,6.9,0,0,0-4-1.06,6.13,6.13,0,0,0-4.79,2,8.33,8.33,0,0,0-1.82,5.73,8.24,8.24,0,0,0,1.84,5.73,6.14,6.14,0,0,0,4.8,2q4.16,0,6.18-2.74v-2.93h-5.08v-2.29h7.54v9.81h-1.8l-.66-2C556.3,537.87,554.25,538.66,551.45,538.66Z"/><path class="cls-4" d="M600.81,518.77a8.67,8.67,0,0,1,6.61,2.73,11.41,11.41,0,0,1,0,14.43,8.67,8.67,0,0,1-6.61,2.73,8.76,8.76,0,0,1-6.64-2.74,11.36,11.36,0,0,1,0-14.42A8.75,8.75,0,0,1,600.81,518.77Zm0,17.71a6.06,6.06,0,0,0,4.73-2.05,9.77,9.77,0,0,0,0-11.43,6,6,0,0,0-4.68-2,6.12,6.12,0,0,0-4.76,2,9.75,9.75,0,0,0,0,11.43A6,6,0,0,0,600.78,536.48Z"/></svg>